<svg version="1.1" id="Layer_1" xmlns="http://www.w3.org/2000/svg" xmlns:xlink="http://www.w3.org/1999/xlink" x="0px" y="0px"
	 width="100%" viewBox="0 0 50 50" enable-background="new 0 0 50 50" xml:space="preserve">
<path fill="#A3896A" opacity="1.000000" stroke="none" 
	d="
M21.000000,51.000000 
	C18.299370,51.000000 15.598741,51.000000 12.400414,50.627731 
	C11.927827,49.506298 11.952937,48.757137 11.988119,47.631645 
	C11.996346,46.504669 11.994501,45.754017 11.996803,44.581650 
	C11.978027,42.203545 11.955105,40.247154 12.261652,38.345680 
	C12.807534,38.453236 13.023949,38.505878 13.341457,38.623123 
	C13.442551,38.687721 13.880476,38.900005 13.968487,39.210556 
	C14.697008,40.015053 15.337519,40.508991 16.154650,41.103020 
	C16.331270,41.203106 16.715515,41.330276 16.715515,41.330276 
	C16.715515,41.330276 17.105488,41.222038 17.261578,41.365486 
	C17.417667,41.508930 17.811991,41.664730 17.854794,42.054550 
	C18.934202,44.295864 19.970806,46.147366 20.911022,48.242851 
	C20.876423,49.324562 20.938211,50.162281 21.000000,51.000000 
z"/>
<path fill="#0662B5" opacity="1.000000" stroke="none" 
	d="
M6.000000,1.000000 
	C8.700629,1.000000 11.401259,1.000000 14.568583,1.339240 
	C15.034549,2.131383 15.033821,2.584286 14.825089,3.154826 
	C14.358374,3.466734 14.150554,3.705331 13.598808,3.993247 
	C8.198628,3.277781 6.249116,7.717102 3.026580,9.592197 
	C3.015783,7.448380 3.013239,5.733234 3.242903,3.820858 
	C4.316741,2.749085 5.158370,1.874543 6.000000,1.000000 
z"/>
<path fill="#E2BC9A" opacity="1.000000" stroke="none" 
	d="
M39.000000,51.000000 
	C37.611004,51.000000 36.222004,51.000000 34.279518,50.701988 
	C33.113934,50.169205 32.501839,49.934429 31.891737,49.333862 
	C31.892893,47.990601 31.892057,47.013126 32.170536,46.023628 
	C32.635414,46.006306 32.820984,46.001019 33.342415,45.894653 
	C34.137020,44.283680 34.595753,42.773777 35.187111,40.960892 
	C35.385498,40.447582 35.451263,40.237255 35.777691,40.027214 
	C36.385784,40.019058 36.733215,40.010620 37.318558,40.123833 
	C38.026669,40.501305 38.496876,40.757133 38.980995,41.411083 
	C39.026863,42.870983 39.058815,43.932762 38.861931,45.180382 
	C38.446411,45.911098 38.259724,46.455967 38.065491,47.348709 
	C38.371964,48.797722 38.685982,49.898861 39.000000,51.000000 
z"/>
<path fill="#0881CC" opacity="1.000000" stroke="none" 
	d="
M15.033094,3.037190 
	C15.033821,2.584286 15.034549,2.131383 15.017637,1.339240 
	C16.066570,1.000000 17.133139,1.000000 18.709276,1.214873 
	C19.409107,1.697069 19.649323,1.907326 20.085926,2.249371 
	C20.450481,2.677145 20.705986,2.865302 21.373743,3.005291 
	C22.498238,3.003916 23.247868,2.999943 24.000751,2.999557 
	C24.004005,3.003144 24.013023,3.010426 24.079124,3.311848 
	C24.762028,4.076303 25.378828,4.539335 26.133011,5.207344 
	C26.481586,5.670184 26.732660,5.880424 27.027411,6.307927 
	C27.042389,6.926326 27.053570,7.279838 26.722231,7.739766 
	C25.444153,7.960503 24.508596,8.074824 23.183512,8.036126 
	C21.196039,7.591402 19.598097,7.299697 17.861679,6.720027 
	C16.840658,5.629714 15.958112,4.827364 15.064674,3.778070 
	C15.053783,3.531126 15.033094,3.037190 15.033094,3.037190 
z"/>
<path fill="#0F83C9" opacity="1.000000" stroke="none" 
	d="
M27.023615,6.043041 
	C26.732660,5.880424 26.481586,5.670184 26.065519,4.905154 
	C25.244772,3.935467 24.628897,3.472947 24.013023,3.010426 
	C24.013023,3.010426 24.004005,3.003144 23.769192,2.770839 
	C22.704355,2.343643 21.874332,2.148752 21.044811,1.714858 
	C21.045313,1.475855 21.000000,1.000000 21.000000,1.000000 
	C23.370558,1.000000 25.741116,1.000000 28.633327,1.328353 
	C30.103537,2.103851 31.052094,2.550997 32.253006,3.000228 
	C32.673622,3.003107 32.841888,3.003900 33.244320,3.003294 
	C33.478489,3.001895 33.946598,3.016693 34.203369,3.020498 
	C34.630817,3.028349 34.801495,3.032395 34.976219,3.364285 
	C34.984097,4.129313 34.987926,4.566498 34.739777,5.143229 
	C33.990913,5.853889 33.494026,6.425004 32.684074,6.923947 
	C30.588547,6.582198 28.806082,6.312619 27.023615,6.043041 
z"/>
<path fill="#0156A8" opacity="1.000000" stroke="none" 
	d="
M3.010695,4.018089 
	C3.013239,5.733234 3.015783,7.448380 3.019281,10.018413 
	C3.013210,12.582452 3.006185,14.291605 2.997304,16.415648 
	C2.985439,18.211309 2.975431,19.592079 2.749074,21.156700 
	C2.021816,21.893702 1.510908,22.446850 1.000000,23.000000 
	C1.000000,17.311958 1.000000,11.623919 1.254658,5.351973 
	C2.009776,4.518075 2.510236,4.268082 3.010695,4.018089 
z"/>
<path fill="#034390" opacity="1.000000" stroke="none" 
	d="
M1.000000,42.000000 
	C1.000000,40.285625 1.000000,38.571247 1.197155,36.290672 
	C1.648350,35.520329 1.849810,35.273300 2.221884,35.072208 
	C2.852337,35.414913 3.259593,35.668793 3.762133,36.256477 
	C4.218145,37.404057 4.578874,38.217823 5.081767,39.290524 
	C5.795309,40.085701 6.366687,40.621952 6.928676,41.448303 
	C6.876487,42.122536 6.833688,42.506672 6.564219,42.924210 
	C6.337548,42.957615 5.879249,43.001720 5.577012,42.948593 
	C4.513885,42.596680 3.752996,42.297894 2.660094,41.999519 
	C1.885388,41.999954 1.442694,41.999977 1.000000,42.000000 
z"/>
<path fill="#004287" opacity="1.000000" stroke="none" 
	d="
M51.000000,9.000000 
	C51.000000,15.021152 51.000000,21.042303 50.803658,27.659557 
	C50.363312,28.457153 50.164474,28.696215 49.800247,28.962206 
	C49.589691,28.951565 49.168262,28.951971 49.153069,28.629025 
	C49.120529,27.875187 49.103188,27.444294 49.238319,26.646778 
	C49.283188,22.854385 49.175583,19.428614 49.098942,15.636966 
	C49.311321,13.825952 49.492737,12.380815 49.754009,10.620790 
	C49.880753,9.874781 49.927639,9.443661 50.230873,9.007748 
	C50.658146,9.001969 50.829071,9.000985 51.000000,9.000000 
z"/>
<path fill="#0D529B" opacity="1.000000" stroke="none" 
	d="
M51.000000,42.000000 
	C51.000000,42.750000 51.000000,43.500000 50.708183,44.588169 
	C50.220345,44.931252 50.024323,44.936169 49.483253,44.956940 
	C48.218903,44.985680 47.299591,44.998569 46.288948,44.600693 
	C46.093388,43.068817 45.989166,41.947704 45.773293,40.551399 
	C45.670704,39.883633 45.679764,39.491062 46.022942,39.074444 
	C46.578197,39.038078 46.799328,39.025757 47.349266,39.011032 
	C48.116364,39.003166 48.554657,38.997700 49.217567,38.993668 
	C49.442184,38.995102 49.891418,38.997429 49.919086,39.331470 
	C50.297836,40.443676 50.648918,41.221836 51.000000,42.000000 
z"/>
<path fill="#EED1B3" opacity="1.000000" stroke="none" 
	d="
M39.416664,51.000000 
	C38.685982,49.898861 38.371964,48.797722 38.288460,47.434036 
	C39.015541,46.781128 39.512108,46.390762 40.256592,46.108761 
	C41.368706,46.159203 42.232906,46.101276 43.114883,46.025162 
	C43.132664,46.006969 43.215607,45.946987 43.631149,46.356918 
	C44.396309,46.937744 44.745922,47.108635 45.058350,47.665569 
	C44.909153,48.556038 44.797142,49.060463 44.596817,49.528954 
	C44.508503,49.493019 44.491863,49.805637 44.318825,50.083607 
	C44.097195,50.574387 44.048595,50.787193 44.000000,51.000000 
	C42.611111,51.000000 41.222221,51.000000 39.416664,51.000000 
z"/>
<path fill="#043C8F" opacity="1.000000" stroke="none" 
	d="
M1.000000,42.436523 
	C1.442694,41.999977 1.885388,41.999954 2.680185,42.348297 
	C3.959935,43.477173 4.887582,44.257679 5.849922,45.079693 
	C5.884615,45.121204 5.936777,45.215996 5.952044,45.381748 
	C5.967310,45.547501 6.004541,45.883587 5.987213,46.284595 
	C5.997891,47.223618 6.025897,47.761631 5.791824,48.365372 
	C4.356848,48.625904 3.183950,48.820713 1.758296,49.011192 
	C1.337026,49.004574 1.168513,49.002285 1.000000,49.000000 
	C1.000000,46.957684 1.000000,44.915363 1.000000,42.436523 
z"/>
<path fill="#0E458D" opacity="1.000000" stroke="none" 
	d="
M44.685127,49.564884 
	C44.797142,49.060463 44.909153,48.556038 45.344357,47.475399 
	C45.905128,46.269939 46.142704,45.640701 46.380280,45.011459 
	C47.299591,44.998569 48.218903,44.985680 49.528870,45.360214 
	C49.869789,46.820648 49.820053,47.893658 49.469635,48.976711 
	C48.447136,49.271816 47.725323,49.556873 46.795998,49.999840 
	C46.392319,50.438496 46.196159,50.719250 46.000000,51.000000 
	C45.555557,51.000000 45.111111,51.000000 44.333336,51.000000 
	C44.048595,50.787193 44.097195,50.574387 44.412109,50.120270 
	C44.678429,49.878963 44.685127,49.564884 44.685127,49.564884 
z"/>
<path fill="#025BB5" opacity="1.000000" stroke="none" 
	d="
M36.000000,1.000000 
	C38.370556,1.000000 40.741116,1.000000 43.668808,1.255603 
	C44.485287,2.005767 44.744629,2.500327 44.751587,2.998285 
	C44.330971,3.003338 44.162735,3.004994 43.619736,3.004466 
	C42.494965,3.004950 41.744953,3.007618 40.746090,3.003859 
	C40.497234,2.997431 39.999435,2.988245 39.833103,2.808365 
	C39.110279,2.746118 38.553787,2.863751 37.668354,2.978939 
	C36.900822,2.973535 36.462231,2.970578 36.010853,2.717460 
	C35.985950,2.300748 35.973835,2.134197 35.978912,1.726036 
	C35.996113,1.484426 36.000000,1.000000 36.000000,1.000000 
z"/>
<path fill="#A28B6F" opacity="1.000000" stroke="none" 
	d="
M29.000000,51.000000 
	C27.611002,51.000000 26.222006,51.000000 24.410515,50.603691 
	C23.995640,49.150467 24.003260,48.093552 24.307671,46.990768 
	C24.799709,46.900414 24.994953,46.855927 25.521006,46.825085 
	C26.292810,46.815605 26.733810,46.792473 27.320129,47.021790 
	C27.562309,47.442543 27.659168,47.610855 27.651354,48.063309 
	C28.098761,48.656471 28.650841,48.965488 29.214848,49.382477 
	C29.226776,49.490452 29.150564,49.693913 29.099770,50.018917 
	C29.032648,50.562618 29.016323,50.781311 29.000000,51.000000 
z"/>
<path fill="#91A2BE" opacity="1.000000" stroke="none" 
	d="
M10.000000,51.000000 
	C9.250000,51.000000 8.500000,51.000000 7.505470,50.640160 
	C7.022424,49.554371 6.783909,48.828430 6.641747,47.749435 
	C6.717954,46.911064 6.697807,46.425743 6.837952,45.757851 
	C6.998244,45.575279 7.252546,45.161236 7.370453,45.225582 
	C7.488360,45.289928 7.756369,45.271442 7.918096,45.541542 
	C8.673409,46.892975 9.266996,47.974308 9.887892,49.379436 
	C9.943466,50.135487 9.971733,50.567741 10.000000,51.000000 
z"/>
<path fill="#02429D" opacity="1.000000" stroke="none" 
	d="
M3.242903,3.820858 
	C2.510236,4.268082 2.009776,4.518075 1.254658,4.884034 
	C1.000000,3.745086 1.000000,2.490172 1.000000,1.000000 
	C2.330387,1.000000 3.665231,1.000000 5.500038,1.000000 
	C5.158370,1.874543 4.316741,2.749085 3.242903,3.820858 
z"/>
<path fill="#AA8A6E" opacity="1.000000" stroke="none" 
	d="
M24.010880,47.036633 
	C24.003260,48.093552 23.995640,49.150467 23.994011,50.603691 
	C23.250000,51.000000 22.500000,51.000000 21.375000,51.000000 
	C20.938211,50.162281 20.876423,49.324562 21.163906,48.123470 
	C22.011530,47.505676 22.509880,47.251251 23.258919,47.004921 
	C23.676697,47.020885 23.843788,47.028759 24.010880,47.036633 
z"/>
<path fill="#0461B6" opacity="1.000000" stroke="none" 
	d="
M1.000000,23.416666 
	C1.510908,22.446850 2.021816,21.893702 2.803259,21.475208 
	C3.385515,22.407469 3.697238,23.205072 3.796358,24.254820 
	C3.066626,25.648512 2.549497,26.790062 1.774783,27.956364 
	C1.344799,27.987411 1.172399,27.993706 1.000000,28.000000 
	C1.000000,26.611111 1.000000,25.222221 1.000000,23.416666 
z"/>
<path fill="#003B82" opacity="1.000000" stroke="none" 
	d="
M51.000000,8.583496 
	C50.829071,9.000985 50.658146,9.001969 50.007362,8.954410 
	C49.527500,8.905865 49.073154,8.834416 49.088017,8.628707 
	C49.102879,8.422997 49.092369,8.007119 49.114452,7.663108 
	C49.409191,6.215894 49.681847,5.112692 50.215874,4.006909 
	C50.651493,4.002885 50.825745,4.001442 51.000000,4.000000 
	C51.000000,5.388998 51.000000,6.777995 51.000000,8.583496 
z"/>
<path fill="#004082" opacity="1.000000" stroke="none" 
	d="
M50.010799,28.972847 
	C50.164474,28.696215 50.363312,28.457153 50.803658,28.127831 
	C51.000000,30.041666 51.000000,32.083332 50.764870,34.568893 
	C50.529743,35.012787 50.059555,35.027889 50.005829,34.722298 
	C49.687355,33.647503 49.422615,32.878304 49.270878,31.803688 
	C49.592854,30.656464 49.801826,29.814655 50.010799,28.972847 
z"/>
<path fill="#003179" opacity="1.000000" stroke="none" 
	d="
M6.545393,48.102486 
	C6.783909,48.828430 7.022424,49.554371 7.130470,50.640160 
	C7.000000,51.000000 6.500000,51.000000 6.028582,50.770172 
	C4.375126,50.032074 3.193089,49.523800 2.011051,49.015526 
	C3.183950,48.820713 4.356848,48.625904 5.914600,48.314156 
	C6.299454,48.197220 6.545393,48.102486 6.545393,48.102486 
z"/>
<path fill="#003374" opacity="1.000000" stroke="none" 
	d="
M50.059555,35.027889 
	C50.059555,35.027889 50.529743,35.012787 50.764870,35.006393 
	C51.000000,37.041668 51.000000,39.083332 51.000000,41.562500 
	C50.648918,41.221836 50.297836,40.443676 49.951401,38.934906 
	C49.990547,37.145500 50.025051,36.086693 50.059555,35.027889 
z"/>
<path fill="#002063" opacity="1.000000" stroke="none" 
	d="
M1.758296,49.011192 
	C3.193089,49.523800 4.375126,50.032074 5.778582,50.770172 
	C4.333333,50.666668 2.666666,50.333336 1.000000,49.500000 
	C1.168513,49.002285 1.337026,49.004574 1.758296,49.011192 
z"/>
<path fill="#0B3C80" opacity="1.000000" stroke="none" 
	d="
M47.003513,49.841934 
	C47.725323,49.556873 48.447136,49.271816 49.777946,48.997246 
	C50.591293,49.005157 50.795647,49.002579 51.000000,49.000000 
	C51.000000,49.000000 51.000000,49.500000 50.782684,49.860252 
	C50.296314,50.421871 50.107857,50.681702 50.000000,51.000000 
	C49.250000,51.000000 48.500000,51.000000 47.386696,50.710518 
	C47.016762,50.227997 47.010136,50.034966 47.003513,49.841934 
z"/>
<path fill="#024FA3" opacity="1.000000" stroke="none" 
	d="
M1.000000,28.416504 
	C1.172399,27.993706 1.344799,27.987411 1.769091,27.972969 
	C2.020983,27.964819 2.037869,27.970770 2.025706,28.311096 
	C2.012473,29.104836 2.011404,29.558247 2.141452,30.208567 
	C2.473404,30.654612 2.714483,30.855434 2.996151,31.339329 
	C2.993585,32.112354 2.990677,32.553993 2.743585,32.998291 
	C2.499402,33.000950 2.011041,33.006817 1.758282,33.004959 
	C1.337015,33.002064 1.168508,33.001034 1.000000,33.000000 
	C1.000000,31.611002 1.000000,30.222006 1.000000,28.416504 
z"/>
<path fill="#0355AB" opacity="1.000000" stroke="none" 
	d="
M45.003971,2.994887 
	C44.744629,2.500327 44.485287,2.005767 44.112976,1.255603 
	C44.750000,1.000000 45.500000,1.000000 46.741165,1.257020 
	C47.493195,2.013623 47.754055,2.513206 47.638168,3.010895 
	C46.508942,3.004297 45.756454,2.999592 45.003971,2.994887 
z"/>
<path fill="#C0AA95" opacity="1.000000" stroke="none" 
	d="
M10.333333,51.000000 
	C9.971733,50.567741 9.943466,50.135487 9.966267,49.110546 
	C10.097999,48.350712 10.178662,48.183559 10.546165,48.011330 
	C11.214685,48.006821 11.596366,48.007397 11.978047,48.007973 
	C11.952937,48.757137 11.927827,49.506298 11.951359,50.627731 
	C11.555555,51.000000 11.111111,51.000000 10.333333,51.000000 
z"/>
<path fill="#987255" opacity="1.000000" stroke="none" 
	d="
M29.416666,51.000000 
	C29.016323,50.781311 29.032648,50.562618 29.442837,50.023178 
	C30.521049,49.701508 31.205397,49.700581 31.889746,49.699657 
	C32.501839,49.934429 33.113934,50.169205 33.863014,50.701988 
	C32.611111,51.000000 31.222221,51.000000 29.416666,51.000000 
z"/>
<path fill="#085AAD" opacity="1.000000" stroke="none" 
	d="
M48.014915,3.012788 
	C47.754055,2.513206 47.493195,2.013623 47.116165,1.257020 
	C47.750000,1.000000 48.500000,1.000000 49.574093,1.342501 
	C49.820652,2.140006 49.743118,2.595009 49.391827,3.041679 
	C48.750351,3.026493 48.382633,3.019640 48.014915,3.012788 
z"/>
<path fill="#076ABA" opacity="1.000000" stroke="none" 
	d="
M32.000648,2.998142 
	C31.052094,2.550997 30.103537,2.103851 29.077492,1.328353 
	C29.444445,1.000000 29.888889,1.000000 30.798710,1.199057 
	C31.469578,1.647538 31.715324,1.847494 32.001141,2.248020 
	C32.000858,2.664754 32.000755,2.831448 32.000648,2.998142 
z"/>
<path fill="#002B6D" opacity="1.000000" stroke="none" 
	d="
M51.000000,48.600006 
	C50.795647,49.002579 50.591293,49.005157 50.078632,48.987198 
	C49.820053,47.893658 49.869789,46.820648 49.873909,45.344368 
	C50.024323,44.936169 50.220345,44.931252 50.708183,44.963169 
	C51.000000,46.066669 51.000000,47.133339 51.000000,48.600006 
z"/>
<path fill="#097AC4" opacity="1.000000" stroke="none" 
	d="
M35.625000,1.000000 
	C36.000000,1.000000 35.996113,1.484426 35.691017,1.775878 
	C34.906143,2.383784 34.426373,2.700239 33.946598,3.016694 
	C33.946598,3.016693 33.478489,3.001895 33.241348,2.668732 
	C33.002804,1.890380 33.001404,1.445190 33.000000,1.000000 
	C33.750000,1.000000 34.500000,1.000000 35.625000,1.000000 
z"/>
<path fill="#003179" opacity="1.000000" stroke="none" 
	d="
M49.665585,3.050012 
	C49.743118,2.595009 49.820652,2.140006 49.949093,1.342501 
	C50.333336,1.666666 50.666668,2.333333 51.000000,3.500000 
	C50.825745,4.001442 50.651493,4.002885 50.159081,3.762398 
	C49.782471,3.363650 49.724030,3.206831 49.665585,3.050012 
z"/>
<path fill="#044BA3" opacity="1.000000" stroke="none" 
	d="
M1.000000,33.375000 
	C1.168508,33.001034 1.337015,33.002064 1.756742,33.334419 
	C2.004869,34.104954 2.001778,34.544170 1.998687,34.983383 
	C1.849810,35.273300 1.648350,35.520329 1.197155,35.862236 
	C1.000000,35.250000 1.000000,34.500000 1.000000,33.375000 
z"/>
<path fill="#0461B6" opacity="1.000000" stroke="none" 
	d="
M32.750000,1.000000 
	C33.001404,1.445190 33.002804,1.890380 33.007179,2.670132 
	C32.841888,3.003900 32.673622,3.003107 32.253006,3.000228 
	C32.000755,2.831448 32.000858,2.664754 32.000725,1.998536 
	C32.000496,1.499012 32.000000,1.000000 32.000000,1.000000 
	C32.000000,1.000000 32.500000,1.000000 32.750000,1.000000 
z"/>
<path fill="#0463B1" opacity="1.000000" stroke="none" 
	d="
M20.666668,1.000000 
	C21.000000,1.000000 21.045313,1.475855 21.033398,1.726839 
	C21.021481,1.977823 21.000763,1.999230 20.735195,2.010240 
	C20.292915,2.034338 20.116203,2.047427 19.939489,2.060517 
	C19.649323,1.907326 19.409107,1.697069 19.109421,1.214873 
	C19.444445,1.000000 19.888889,1.000000 20.666668,1.000000 
z"/>
<path fill="#0164BA" opacity="1.000000" stroke="none" 
	d="
M31.750000,1.000000 
	C32.000000,1.000000 32.000496,1.499012 32.000908,1.748496 
	C31.715324,1.847494 31.469578,1.647538 31.132042,1.199057 
	C31.000000,1.000000 31.500000,1.000000 31.750000,1.000000 
z"/>
<path fill="#002B6D" opacity="1.000000" stroke="none" 
	d="
M50.500000,51.000000 
	C50.107857,50.681702 50.296314,50.421871 50.782684,50.110252 
	C51.000000,50.333332 51.000000,50.666668 50.500000,51.000000 
z"/>
<path fill="#01235E" opacity="1.000000" stroke="none" 
	d="
M46.795998,49.999840 
	C47.010136,50.034966 47.016762,50.227997 47.011696,50.710518 
	C47.000000,51.000000 46.500000,51.000000 46.250000,51.000000 
	C46.196159,50.719250 46.392319,50.438496 46.795998,49.999840 
z"/>
<path fill="#A68B6F" opacity="1.000000" stroke="none" 
	d="
M23.008232,46.996826 
	C22.509880,47.251251 22.011530,47.505676 21.260296,47.879478 
	C19.970806,46.147366 18.934202,44.295864 17.883369,41.737690 
	C17.598782,40.822914 17.328424,40.614815 17.173029,39.960007 
	C17.086029,39.281414 16.884064,39.049526 16.563328,38.797928 
	C16.444555,38.778221 15.989946,38.964336 16.017616,38.957741 
	C16.045288,38.951145 16.044262,38.894260 16.342268,38.694408 
	C18.092907,38.331642 19.545538,38.168732 21.229553,38.248234 
	C22.308908,40.287971 23.156885,42.085293 23.880131,44.187393 
	C23.506344,45.327057 23.257288,46.161945 23.008232,46.996826 
z"/>
<path fill="#B19B81" opacity="1.000000" stroke="none" 
	d="
M11.932182,38.290768 
	C11.955105,40.247154 11.978027,42.203545 11.714806,44.580894 
	C11.051933,45.009964 10.675204,45.018074 10.201512,44.670349 
	C9.960757,43.846867 9.816964,43.379219 9.709755,42.502052 
	C9.837352,40.726479 9.928365,39.360424 10.315593,38.014015 
	C11.006528,38.055737 11.401248,38.077816 11.858379,38.127377 
	C11.920791,38.154858 11.932182,38.290768 11.932182,38.290768 
z"/>
<path fill="#4B3320" opacity="1.000000" stroke="none" 
	d="
M13.240364,38.558525 
	C13.023949,38.505878 12.807534,38.453236 12.261652,38.345680 
	C11.932182,38.290768 11.920791,38.154858 11.893897,37.754860 
	C11.966464,36.365948 12.065926,35.377037 12.398799,34.335297 
	C12.632211,34.282471 13.110274,34.259171 13.177211,34.421791 
	C13.244147,34.584408 13.311321,34.929642 13.421388,35.227226 
	C13.822856,35.835369 14.114258,36.145924 14.344435,36.712688 
	C14.176184,37.301819 14.069157,37.634747 13.959741,37.990681 
	C13.957353,38.013691 14.003167,38.020153 13.787096,38.118797 
	C13.571025,38.217445 13.240364,38.558525 13.240364,38.558525 
z"/>
<path fill="#BDA487" opacity="1.000000" stroke="none" 
	d="
M10.298475,45.026184 
	C10.675204,45.018074 11.051933,45.009964 11.710659,45.002609 
	C11.994501,45.754017 11.996346,46.504669 11.988119,47.631645 
	C11.596366,48.007397 11.214685,48.006821 10.494482,47.638847 
	C10.203466,46.523026 10.250971,45.774605 10.298475,45.026184 
z"/>
<path fill="#988265" opacity="1.000000" stroke="none" 
	d="
M15.978028,41.002934 
	C15.337519,40.508991 14.697008,40.015053 13.999249,38.991280 
	C13.941998,38.461445 14.003167,38.020153 14.003167,38.020153 
	C14.003167,38.020153 13.957353,38.013691 14.218405,38.110802 
	C15.001058,38.436699 15.522660,38.665478 16.044262,38.894260 
	C16.044262,38.894260 16.045288,38.951145 16.024986,39.236984 
	C16.041000,39.705502 16.077316,39.888180 16.090094,40.305382 
	C16.066553,40.539909 15.978028,41.002934 15.978028,41.002934 
z"/>
<path fill="#3E2913" opacity="1.000000" stroke="none" 
	d="
M16.154650,41.103020 
	C15.978028,41.002934 16.066553,40.539909 16.288464,40.017670 
	C16.567614,39.269505 16.624857,39.043571 16.682100,38.817635 
	C16.884064,39.049526 17.086029,39.281414 17.197868,40.163551 
	C17.107742,40.813797 17.105488,41.222038 17.105488,41.222038 
	C17.105488,41.222038 16.715515,41.330276 16.715515,41.330276 
	C16.715515,41.330276 16.331270,41.203106 16.154650,41.103020 
z"/>
<path fill="#241206" opacity="1.000000" stroke="none" 
	d="
M17.261578,41.365486 
	C17.105488,41.222038 17.107742,40.813797 17.082905,40.610252 
	C17.328424,40.614815 17.598782,40.822914 17.840565,41.347870 
	C17.811991,41.664730 17.417667,41.508930 17.261578,41.365486 
z"/>
<path fill="#A18F7B" opacity="1.000000" stroke="none" 
	d="
M13.787096,38.118797 
	C14.003167,38.020153 13.941998,38.461445 13.911237,38.680725 
	C13.880476,38.900005 13.442551,38.687721 13.341457,38.623123 
	C13.240364,38.558525 13.571025,38.217445 13.787096,38.118797 
z"/>
<path fill="#066FBE" opacity="1.000000" stroke="none" 
	d="
M2.999160,16.000757 
	C3.006185,14.291605 3.013210,12.582452 3.027534,10.447084 
	C6.249116,7.717102 8.198628,3.277781 13.606161,4.253787 
	C14.012965,4.682942 14.017600,4.856549 14.020460,5.277158 
	C14.018685,5.524160 14.010747,6.018115 13.634087,6.036888 
	C9.237714,6.986924 10.246747,10.285384 9.994284,13.315205 
	C10.005071,14.072937 10.014967,14.505061 9.687383,14.948063 
	C8.899785,14.967700 8.449670,14.976457 7.768233,14.776741 
	C6.024328,15.045765 4.511744,15.523261 2.999160,16.000757 
z"/>
<path fill="#0773C1" opacity="1.000000" stroke="none" 
	d="
M14.022236,5.030155 
	C14.017600,4.856549 14.012965,4.682942 14.000977,4.248795 
	C14.150554,3.705331 14.358374,3.466734 14.825089,3.154826 
	C15.033094,3.037190 15.053783,3.531126 14.915319,3.972242 
	C14.559993,4.661385 14.308453,4.866983 14.022236,5.030155 
z"/>
<path fill="#FCEBCF" opacity="1.000000" stroke="none" 
	d="
M43.097107,46.043350 
	C42.232906,46.101276 41.368706,46.159203 40.140114,45.909348 
	C39.592232,45.348637 39.363914,45.146294 39.090767,44.994537 
	C39.058815,43.932762 39.026863,42.870983 39.013268,41.168327 
	C39.031620,40.527451 39.061386,40.038948 39.275055,39.796158 
	C39.704567,38.721516 39.920410,37.889656 40.420605,37.040344 
	C40.894169,37.006416 41.083378,36.989948 41.461227,37.189659 
	C42.053734,38.042923 42.457600,38.680012 42.791245,39.732090 
	C42.846386,42.112507 42.971745,44.077927 43.097107,46.043350 
z"/>
<path fill="#FDDCBC" opacity="1.000000" stroke="none" 
	d="
M31.891737,49.333862 
	C31.205397,49.700581 30.521049,49.701508 29.493633,49.698174 
	C29.150564,49.693913 29.226776,49.490452 29.163408,49.266930 
	C29.100040,49.043411 28.947210,48.834335 28.877403,48.664894 
	C28.666864,48.278320 28.469110,48.147057 28.108612,48.008446 
	C28.002892,47.915237 27.756029,47.779167 27.756029,47.779167 
	C27.659168,47.610855 27.562309,47.442543 27.322033,46.685097 
	C27.169588,45.415131 27.160561,44.734310 27.322769,43.906380 
	C27.711744,43.543419 27.888115,43.297848 28.344749,43.020149 
	C29.094957,43.019741 29.523537,43.021744 30.153263,43.154587 
	C30.604694,43.490437 30.812244,43.732136 31.002378,44.298203 
	C31.315538,45.069130 31.603382,45.552395 31.891224,46.035656 
	C31.892057,47.013126 31.892893,47.990601 31.891737,49.333862 
z"/>
<path fill="#DAB492" opacity="1.000000" stroke="none" 
	d="
M35.054489,41.263874 
	C34.595753,42.773777 34.137020,44.283680 33.340397,45.561737 
	C33.001522,44.885887 33.000530,44.441875 33.000977,43.604401 
	C32.995575,42.161758 32.988728,41.112576 33.233807,40.172371 
	C33.642670,40.375435 33.799606,40.469532 34.061035,40.774345 
	C34.436214,41.159729 34.732536,41.252666 35.054489,41.263874 
z"/>
<path fill="#CDB29B" opacity="1.000000" stroke="none" 
	d="
M37.080647,40.002182 
	C36.733215,40.010620 36.385784,40.019058 35.766106,39.810806 
	C35.493858,39.594116 35.248791,39.236774 35.269897,38.858658 
	C35.221020,37.980709 35.151028,37.480873 35.396027,36.993198 
	C36.131237,36.996811 36.551453,36.988258 36.990486,37.325363 
	C37.051369,38.131012 37.093437,38.591003 37.119720,39.288673 
	C37.103935,39.526348 37.080647,40.002182 37.080647,40.002182 
z"/>
<path fill="#F8D7B6" opacity="1.000000" stroke="none" 
	d="
M38.861931,45.180382 
	C39.363914,45.146294 39.592232,45.348637 39.892197,45.800987 
	C39.512108,46.390762 39.015541,46.781128 38.296005,47.086166 
	C38.259724,46.455967 38.446411,45.911098 38.861931,45.180382 
z"/>
<path fill="#DEB99B" opacity="1.000000" stroke="none" 
	d="
M32.999542,43.997864 
	C33.000530,44.441875 33.001522,44.885887 33.004532,45.662811 
	C32.820984,46.001019 32.635414,46.006306 32.170536,46.023628 
	C31.603382,45.552395 31.315538,45.069130 31.339710,44.292030 
	C32.100994,43.998081 32.550270,43.997971 32.999542,43.997864 
z"/>
<path fill="#F0CCA9" opacity="1.000000" stroke="none" 
	d="
M37.318558,40.123833 
	C37.080647,40.002182 37.103935,39.526348 37.343590,39.271225 
	C37.583241,39.016098 38.034672,38.993858 38.276070,38.996712 
	C38.517467,38.999569 39.000187,39.009880 39.011185,39.267403 
	C39.035248,39.696266 39.048317,39.867607 39.061386,40.038948 
	C39.061386,40.038948 39.031620,40.527451 38.999352,40.770203 
	C38.496876,40.757133 38.026669,40.501305 37.318558,40.123833 
z"/>
<path fill="#745948" opacity="1.000000" stroke="none" 
	d="
M35.248791,39.236774 
	C35.248791,39.236774 35.493858,39.594116 35.505444,39.810524 
	C35.451263,40.237255 35.385498,40.447582 35.187111,40.960892 
	C34.732536,41.252666 34.436214,41.159729 34.199055,40.488220 
	C34.571320,39.739845 34.910057,39.488308 35.248791,39.236774 
z"/>
<path fill="#118ECE" opacity="1.000000" stroke="none" 
	d="
M27.027411,6.307927 
	C28.806082,6.312619 30.588547,6.582198 32.814701,7.200999 
	C33.842537,8.366876 34.426682,9.183528 35.120026,10.236889 
	C35.492874,10.923816 35.756523,11.374032 35.620003,11.862770 
	C34.152508,11.845519 33.085186,11.789746 31.945301,11.503704 
	C31.243555,11.399864 30.614374,11.526297 29.766163,11.690306 
	C29.146994,11.884402 28.746857,12.040921 28.150198,12.170642 
	C27.705109,12.046686 27.467503,11.927638 27.281612,11.374628 
	C27.236494,9.852820 27.150623,8.743086 27.064754,7.633350 
	C27.053570,7.279838 27.042389,6.926326 27.027411,6.307927 
z"/>
<path fill="#0F85CE" opacity="1.000000" stroke="none" 
	d="
M14.020460,5.277158 
	C14.308453,4.866983 14.559993,4.661385 14.926210,4.219186 
	C15.958112,4.827364 16.840658,5.629714 17.861588,7.092929 
	C17.999508,8.500058 17.999046,9.246321 17.940224,10.284754 
	C17.235035,11.307414 16.588202,12.037904 15.619477,12.807997 
	C14.866761,12.818002 14.435936,12.788404 13.939090,12.426245 
	C13.918962,10.068494 13.964854,8.043304 14.010747,6.018115 
	C14.010747,6.018115 14.018685,5.524160 14.020460,5.277158 
z"/>
<path fill="#002542" opacity="1.000000" stroke="none" 
	d="
M26.722233,7.739766 
	C27.150623,8.743086 27.236494,9.852820 26.831886,11.442415 
	C25.033924,11.394526 23.726440,10.866776 22.594788,10.237516 
	C22.887848,9.737285 23.005074,9.338563 23.288361,8.784216 
	C23.454424,8.628591 23.573040,8.189145 23.573040,8.189145 
	C24.508596,8.074824 25.444153,7.960503 26.722233,7.739766 
z"/>
<path fill="#108AD2" opacity="1.000000" stroke="none" 
	d="
M23.183512,8.036126 
	C23.573040,8.189145 23.454424,8.628591 23.023125,8.901543 
	C22.089399,9.453815 21.586969,9.733137 20.698906,10.002495 
	C19.541708,9.992547 18.770145,9.992566 17.998583,9.992584 
	C17.999046,9.246321 17.999508,8.500058 18.000061,7.380893 
	C19.598097,7.299697 21.196039,7.591402 23.183512,8.036126 
z"/>
<path fill="#0B7ACA" opacity="1.000000" stroke="none" 
	d="
M24.079124,3.311848 
	C24.628897,3.472947 25.244772,3.935467 25.928137,4.700178 
	C25.378828,4.539335 24.762028,4.076303 24.079124,3.311848 
z"/>
<path fill="#0463B1" opacity="1.000000" stroke="none" 
	d="
M21.032894,1.965842 
	C21.874332,2.148752 22.704355,2.343643 23.765938,2.767253 
	C23.247868,2.999943 22.498238,3.003916 21.375046,2.754413 
	C21.001244,2.333702 21.001003,2.166466 21.000763,1.999230 
	C21.000763,1.999230 21.021481,1.977823 21.032894,1.965842 
z"/>
<path fill="#076ABA" opacity="1.000000" stroke="none" 
	d="
M20.735195,2.010240 
	C21.001003,2.166466 21.001244,2.333702 21.000179,2.751816 
	C20.705986,2.865302 20.450481,2.677145 20.085926,2.249371 
	C20.116203,2.047427 20.292915,2.034338 20.735195,2.010240 
z"/>
<path fill="#088BCE" opacity="1.000000" stroke="none" 
	d="
M35.010830,10.000181 
	C34.426682,9.183528 33.842537,8.366876 33.127762,7.273170 
	C33.494026,6.425004 33.990913,5.853889 35.030800,5.277119 
	C36.716740,5.850174 37.859684,6.428886 38.975739,7.376427 
	C37.636173,8.496899 36.323502,9.248540 35.010830,10.000181 
z"/>
<path fill="#0B74C5" opacity="1.000000" stroke="none" 
	d="
M39.002628,7.007597 
	C37.859684,6.428886 36.716740,5.850174 35.282776,5.137573 
	C34.987926,4.566498 34.984097,4.129313 35.239231,3.346586 
	C35.673344,2.989902 35.848492,2.978761 36.023640,2.967620 
	C36.462231,2.970578 36.900822,2.973535 38.002010,2.985337 
	C39.109550,2.992203 39.554493,2.990224 39.999435,2.988245 
	C39.999435,2.988245 40.497234,2.997431 40.747509,3.376364 
	C41.000042,4.501177 41.002300,5.247058 40.718292,6.037118 
	C39.955330,6.383226 39.478634,6.685154 39.000778,6.992198 
	C38.999622,6.997313 39.002628,7.007596 39.002628,7.007597 
z"/>
<path fill="#076ABA" opacity="1.000000" stroke="none" 
	d="
M36.010853,2.717460 
	C35.848492,2.978761 35.673344,2.989902 35.235184,3.018742 
	C34.801495,3.032395 34.630817,3.028349 34.203369,3.020499 
	C34.426373,2.700239 34.906143,2.383784 35.673817,2.017488 
	C35.973835,2.134197 35.985950,2.300748 36.010853,2.717460 
z"/>
<path fill="#0C72BF" opacity="1.000000" stroke="none" 
	d="
M2.997304,16.415648 
	C4.511744,15.523261 6.024328,15.045765 7.767230,15.192324 
	C8.286179,18.174858 8.574809,20.533339 8.677170,23.031633 
	C8.260154,23.384094 8.073189,23.630022 7.692770,23.934769 
	C7.455538,23.960304 6.982938,24.026445 6.611142,24.018272 
	C5.495884,24.007624 4.752423,24.005150 4.008961,24.002676 
	C3.697238,23.205072 3.385515,22.407469 3.019608,21.291359 
	C2.975431,19.592079 2.985439,18.211309 2.997304,16.415648 
z"/>
<path fill="#11151B" opacity="1.000000" stroke="none" 
	d="
M10.019377,37.994366 
	C9.928365,39.360424 9.837352,40.726479 9.492266,42.593521 
	C8.854633,43.364410 8.471075,43.634312 7.843952,43.775352 
	C7.330554,43.394596 7.060720,43.142700 6.790888,42.890804 
	C6.833688,42.506672 6.876487,42.122536 6.955790,41.011406 
	C7.020363,38.563324 7.048434,36.842236 7.287355,35.281948 
	C8.147488,36.301121 8.796769,37.159496 9.590534,38.040092 
	C9.735018,38.062313 10.019376,37.994366 10.019377,37.994366 
z"/>
<path fill="#273543" opacity="1.000000" stroke="none" 
	d="
M7.076505,35.121151 
	C7.048434,36.842236 7.020363,38.563324 6.965179,40.721306 
	C6.366687,40.621952 5.795309,40.085701 5.109674,38.885376 
	C5.006478,37.410236 5.017538,36.599174 5.075514,35.643852 
	C4.740682,35.375927 4.358933,35.252251 4.008502,34.878235 
	C4.050770,34.460045 4.061723,34.292206 4.297143,33.960854 
	C4.748865,33.302563 4.976119,32.807781 5.389972,32.254211 
	C5.576570,32.195423 5.946563,32.068119 6.076203,32.226524 
	C6.406420,32.572948 6.633047,32.721115 6.921240,33.210278 
	C6.996671,34.101135 7.036588,34.611141 7.076505,35.121151 
z"/>
<path fill="#0F4591" opacity="1.000000" stroke="none" 
	d="
M5.815230,45.038181 
	C4.887582,44.257679 3.959935,43.477173 3.012197,42.347889 
	C3.752996,42.297894 4.513885,42.596680 5.606925,43.288338 
	C5.897793,44.133537 5.856512,44.585861 5.815230,45.038181 
z"/>
<path fill="#0D5BAA" opacity="1.000000" stroke="none" 
	d="
M4.072676,34.124363 
	C4.061723,34.292206 4.050770,34.460045 3.976708,34.991341 
	C3.913598,35.354794 3.861780,35.588017 3.816240,35.673538 
	C3.770699,35.759060 3.666850,35.922668 3.666850,35.922668 
	C3.259593,35.668793 2.852337,35.414913 2.221884,35.072208 
	C2.001778,34.544170 2.004869,34.104954 2.009501,33.336281 
	C2.011041,33.006817 2.499402,33.000950 2.958393,33.006134 
	C3.417385,33.011322 3.844664,33.044159 3.899284,33.314713 
	C3.993495,33.764961 4.033085,33.944660 4.072676,34.124363 
z"/>
<path fill="#032A55" opacity="1.000000" stroke="none" 
	d="
M5.028599,35.788109 
	C5.017538,36.599174 5.006478,37.410236 4.967510,38.626450 
	C4.578874,38.217823 4.218145,37.404057 3.762133,36.256477 
	C3.666850,35.922668 3.770699,35.759060 4.105032,35.746815 
	C4.635777,35.752419 4.832188,35.770264 5.028599,35.788109 
z"/>
<path fill="#3B5D8C" opacity="1.000000" stroke="none" 
	d="
M5.849923,45.079693 
	C5.856512,44.585861 5.897793,44.133537 5.909162,43.341469 
	C5.879249,43.001720 6.337548,42.957615 6.564218,42.924210 
	C7.060720,43.142700 7.330554,43.394596 7.762635,44.117973 
	C7.868712,44.816780 7.812541,45.044113 7.756369,45.271442 
	C7.756369,45.271442 7.488360,45.289928 7.041020,45.227493 
	C6.374713,45.182041 6.155745,45.199017 5.936777,45.215996 
	C5.936777,45.215996 5.884615,45.121204 5.849923,45.079693 
z"/>
<path fill="#0878C4" opacity="1.000000" stroke="none" 
	d="
M49.067978,16.002844 
	C49.175583,19.428614 49.283188,22.854385 48.893333,26.653946 
	C47.608917,27.641359 46.821960,28.254984 45.896828,29.064192 
	C45.559013,29.509171 45.352047,29.752325 44.891922,29.960030 
	C44.646099,29.930820 44.153500,29.946327 44.158752,29.623590 
	C44.124832,28.872448 44.085659,28.444044 44.033672,28.001163 
	C44.020855,27.986687 44.006542,28.022587 44.228764,27.917202 
	C44.701073,27.588957 44.886108,27.321148 45.028336,26.674604 
	C45.075119,25.895519 45.099667,25.450218 45.381287,24.832970 
	C46.091396,23.775637 46.544430,22.890255 47.061115,21.629913 
	C47.408772,19.506701 47.692772,17.758450 48.249573,16.007692 
	C48.704239,16.004406 48.886108,16.003624 49.067978,16.002844 
z"/>
<path fill="#097AC4" opacity="1.000000" stroke="none" 
	d="
M49.098942,15.636966 
	C48.886108,16.003624 48.704239,16.004406 47.944016,15.927799 
	C46.576248,14.900401 45.786839,13.950390 44.984222,12.634315 
	C44.643124,10.849317 44.315231,9.430380 44.363079,8.007971 
	C45.489265,8.005852 46.239716,8.007204 47.060806,8.309616 
	C47.738598,9.098166 48.345749,9.585659 49.051369,10.236086 
	C49.297672,10.604238 49.472443,10.783123 49.674152,10.935678 
	C49.492737,12.380815 49.311321,13.825952 49.098942,15.636966 
z"/>
<path fill="#1A6BA7" opacity="1.000000" stroke="none" 
	d="
M45.137745,29.989241 
	C45.352047,29.752325 45.559013,29.509171 46.284286,29.103451 
	C47.596031,28.948738 48.382149,28.950354 49.168262,28.951971 
	C49.168262,28.951971 49.589691,28.951565 49.800247,28.962206 
	C49.801826,29.814655 49.592854,30.656464 48.900894,31.851490 
	C48.175110,32.252964 47.932323,32.301220 47.499855,32.384499 
	C46.922874,32.523129 46.535583,32.626736 46.086056,32.470440 
	C45.675423,31.823053 45.327030,31.435566 44.991837,30.779377 
	C45.049278,30.336861 45.093513,30.163050 45.137745,29.989241 
z"/>
<path fill="#1071B8" opacity="1.000000" stroke="none" 
	d="
M49.153069,28.629025 
	C48.382149,28.950354 47.596031,28.948738 46.422459,28.907864 
	C46.821960,28.254984 47.608917,27.641359 48.740860,27.020569 
	C49.103188,27.444294 49.120529,27.875187 49.153069,28.629025 
z"/>
<path fill="#0971BD" opacity="1.000000" stroke="none" 
	d="
M49.754009,10.620790 
	C49.472443,10.783123 49.297672,10.604238 49.081268,9.925964 
	C49.032845,9.246744 49.053001,9.040580 49.073154,8.834416 
	C49.073154,8.834416 49.527500,8.905865 49.751015,8.959203 
	C49.927639,9.443661 49.880753,9.874781 49.754009,10.620790 
z"/>
<path fill="#18272A" opacity="1.000000" stroke="none" 
	d="
M43.114883,46.025162 
	C42.971745,44.077927 42.846386,42.112507 42.930702,39.487156 
	C43.623383,38.576710 44.106392,38.326187 44.809036,38.203094 
	C45.248726,38.586514 45.468773,38.842503 45.688824,39.098488 
	C45.679764,39.491062 45.670704,39.883633 45.485008,40.727715 
	C44.610783,42.768475 43.913197,44.357731 43.215607,45.946987 
	C43.215607,45.946987 43.132664,46.006969 43.114883,46.025162 
z"/>
<path fill="#85B3E0" opacity="1.000000" stroke="none" 
	d="
M43.631153,46.356918 
	C43.913197,44.357731 44.610783,42.768475 45.596657,41.002907 
	C45.989166,41.947704 46.093388,43.068817 46.288948,44.600693 
	C46.142704,45.640701 45.905128,46.269939 45.381542,47.089352 
	C44.745922,47.108635 44.396309,46.937744 43.631153,46.356918 
z"/>
<path fill="#155596" opacity="1.000000" stroke="none" 
	d="
M47.689545,32.349472 
	C47.932323,32.301220 48.175110,32.252964 48.787888,32.156906 
	C49.422615,32.878304 49.687355,33.647503 50.005829,34.722298 
	C50.025051,36.086693 49.990547,37.145500 49.923729,38.600868 
	C49.891418,38.997429 49.442184,38.995102 49.207977,38.657749 
	C48.617481,37.540218 48.261185,36.760040 47.908302,35.611591 
	C47.837658,34.278706 47.763603,33.314087 47.689545,32.349472 
z"/>
<path fill="#16599E" opacity="1.000000" stroke="none" 
	d="
M47.904888,35.979862 
	C48.261185,36.760040 48.617481,37.540218 48.983360,38.656315 
	C48.554657,38.997700 48.116364,39.003166 47.345478,38.653137 
	C47.015907,37.820805 47.018932,37.343964 47.192844,36.744404 
	C47.577934,36.436264 47.758320,36.222321 47.904888,35.979862 
z"/>
<path fill="#245B8F" opacity="1.000000" stroke="none" 
	d="
M47.021957,36.867119 
	C47.018932,37.343964 47.015907,37.820805 47.016670,38.655540 
	C46.799328,39.025757 46.578197,39.038078 46.022942,39.074444 
	C45.468773,38.842503 45.248726,38.586514 44.933739,37.886719 
	C44.941628,37.004112 45.044453,36.565315 45.358002,36.125221 
	C45.568722,36.123920 45.991673,36.098389 46.180244,36.204651 
	C46.624077,36.452232 46.841793,36.637634 47.021957,36.867119 
z"/>
<path fill="#A68B6F" opacity="1.000000" stroke="none" 
	d="
M44.596817,49.528954 
	C44.685127,49.564884 44.678429,49.878963 44.585144,49.842300 
	C44.491863,49.805637 44.508503,49.493019 44.596817,49.528954 
z"/>
<path fill="#1B4B89" opacity="1.000000" stroke="none" 
	d="
M6.641747,47.749435 
	C6.545393,48.102486 6.299454,48.197220 6.176679,48.248432 
	C6.025897,47.761631 5.997891,47.223618 6.155144,46.304565 
	C6.340404,45.923531 6.677660,45.940418 6.677660,45.940418 
	C6.697807,46.425743 6.717954,46.911064 6.641747,47.749435 
z"/>
<path fill="#0F4591" opacity="1.000000" stroke="none" 
	d="
M6.837952,45.757851 
	C6.677660,45.940418 6.340404,45.923531 6.172472,45.903557 
	C6.004541,45.883587 5.967310,45.547501 5.952044,45.381748 
	C6.155745,45.199017 6.374713,45.182041 6.923113,45.163147 
	C7.252546,45.161236 6.998244,45.575279 6.837952,45.757851 
z"/>
<path fill="#0964B5" opacity="1.000000" stroke="none" 
	d="
M49.391827,3.041679 
	C49.724030,3.206831 49.782471,3.363650 49.897709,3.764980 
	C49.681847,5.112692 49.409191,6.215894 48.845718,7.548919 
	C48.037113,7.518708 47.519318,7.258675 46.861931,6.745381 
	C46.147305,5.995240 45.572277,5.498360 44.888466,4.743845 
	C44.517956,3.993024 44.256229,3.499837 43.994503,3.006649 
	C44.162735,3.004994 44.330971,3.003338 44.751587,2.998285 
	C45.756454,2.999592 46.508942,3.004297 47.638168,3.010895 
	C48.382633,3.019640 48.750351,3.026493 49.391827,3.041679 
z"/>
<path fill="#0A6CBF" opacity="1.000000" stroke="none" 
	d="
M43.619736,3.004466 
	C44.256229,3.499837 44.517956,3.993024 44.690113,4.876882 
	C44.351337,5.473068 44.150467,5.718197 43.747551,6.001638 
	C43.330257,5.999612 43.163338,5.998885 42.665642,5.997540 
	C41.894012,5.996811 41.453152,5.996699 41.007324,5.997980 
	C41.002357,5.999373 41.004559,5.992939 41.004559,5.992939 
	C41.002300,5.247058 41.000042,4.501177 40.996365,3.382792 
	C41.744953,3.007618 42.494965,3.004950 43.619736,3.004466 
z"/>
<path fill="#076ABA" opacity="1.000000" stroke="none" 
	d="
M39.833103,2.808365 
	C39.554493,2.990224 39.109550,2.992203 38.330952,2.987783 
	C38.553787,2.863751 39.110279,2.746118 39.833103,2.808365 
z"/>
<path fill="#D9B694" opacity="1.000000" stroke="none" 
	d="
M27.151535,44.053486 
	C27.160561,44.734310 27.169588,45.415131 27.176712,46.432648 
	C26.733810,46.792473 26.292810,46.815605 25.478958,46.500214 
	C25.061291,45.723259 25.016474,45.284832 25.159760,44.664055 
	C25.539652,43.992081 25.731443,43.502457 26.162088,43.142071 
	C26.651138,43.532036 26.901337,43.792763 27.151535,44.053486 
z"/>
<path fill="#BA997C" opacity="1.000000" stroke="none" 
	d="
M24.971659,44.846401 
	C25.016474,45.284832 25.061291,45.723259 25.148151,46.486565 
	C24.994953,46.855927 24.799709,46.900414 24.307671,46.990768 
	C23.843788,47.028759 23.676697,47.020885 23.258919,47.004921 
	C23.257288,46.161945 23.506344,45.327057 24.072140,44.318729 
	C24.640879,44.331024 24.835138,44.564732 24.971659,44.846401 
z"/>
<path fill="#E2BC9A" opacity="1.000000" stroke="none" 
	d="
M28.947210,48.834335 
	C28.947210,48.834335 29.100040,49.043411 29.151482,49.158958 
	C28.650841,48.965488 28.098761,48.656471 27.651354,48.063309 
	C27.756029,47.779167 28.002892,47.915237 28.193584,48.161873 
	C28.534039,48.600479 28.721682,48.742420 28.947210,48.834335 
z"/>
<path fill="#4E453C" opacity="1.000000" stroke="none" 
	d="
M7.918096,45.541542 
	C7.812541,45.044113 7.868712,44.816780 8.006201,44.246830 
	C8.471075,43.634312 8.854633,43.364410 9.455681,43.003040 
	C9.816964,43.379219 9.960757,43.846867 10.201512,44.670349 
	C10.250971,45.774605 10.203466,46.523026 10.207644,47.643929 
	C10.178662,48.183559 10.097999,48.350712 9.938959,48.786755 
	C9.266996,47.974308 8.673409,46.892975 7.918096,45.541542 
z"/>
<path fill="#106EB8" opacity="1.000000" stroke="none" 
	d="
M3.796358,24.254820 
	C4.752423,24.005150 5.495884,24.007624 6.631103,24.408543 
	C7.088636,25.324484 7.154415,25.841978 7.253325,26.618759 
	C7.183064,27.213987 7.079672,27.549927 6.731864,27.906311 
	C6.487449,27.926752 6.004692,28.013767 5.998833,28.007088 
	C5.992973,28.000408 5.976727,27.993061 5.871231,27.861290 
	C5.508599,27.866127 5.251462,28.002735 4.990319,28.328426 
	C4.986312,28.517511 4.968529,28.895346 4.728194,28.906322 
	C4.487859,28.917299 4.008039,28.953333 3.873386,28.759914 
	C3.530641,28.323521 3.283722,28.130096 2.757971,27.981056 
	C2.517965,27.975883 2.037869,27.970770 2.037869,27.970770 
	C2.037869,27.970770 2.020983,27.964819 2.026676,27.948215 
	C2.549497,26.790062 3.066626,25.648512 3.796358,24.254820 
z"/>
<path fill="#0B6BBB" opacity="1.000000" stroke="none" 
	d="
M47.001526,6.998642 
	C47.519318,7.258675 48.037113,7.518708 48.823639,7.892931 
	C49.092369,8.007119 49.102879,8.422997 49.088017,8.628707 
	C49.053001,9.040580 49.032845,9.246744 48.982796,9.763031 
	C48.345749,9.585659 47.738598,9.098166 47.064186,8.057090 
	C46.998455,7.335218 46.999989,7.166931 47.001526,6.998642 
z"/>
<path fill="#16599E" opacity="1.000000" stroke="none" 
	d="
M4.008039,28.953333 
	C4.008039,28.953333 4.487859,28.917299 4.762861,29.122032 
	C5.037863,29.326765 5.075322,29.759605 5.043930,30.052979 
	C5.001404,30.542732 4.990269,30.739115 4.977250,30.944912 
	C4.975366,30.954327 4.963874,30.967989 4.706820,30.975576 
	C4.278553,30.992035 4.107339,31.000908 3.701050,31.007446 
	C3.465975,31.005116 2.995808,31.007946 2.995808,31.007946 
	C2.714483,30.855434 2.473404,30.654612 2.338168,30.073414 
	C2.650493,29.533529 2.849665,29.287249 3.253155,28.994007 
	C3.672700,28.974785 3.840369,28.964058 4.008039,28.953333 
z"/>
<path fill="#0D529B" opacity="1.000000" stroke="none" 
	d="
M2.996151,31.339329 
	C2.995808,31.007946 3.465975,31.005116 3.707568,31.346863 
	C3.914329,32.140461 3.879496,32.592308 3.844664,33.044159 
	C3.844664,33.044159 3.417385,33.011322 3.202576,33.003479 
	C2.990677,32.553993 2.993585,32.112354 2.996151,31.339329 
z"/>
<path fill="#085AAD" opacity="1.000000" stroke="none" 
	d="
M3.001280,29.002506 
	C2.849665,29.287249 2.650493,29.533529 2.207050,29.876503 
	C2.011404,29.558247 2.012473,29.104836 2.025706,28.311096 
	C2.037869,27.970770 2.517965,27.975883 2.758689,28.235189 
	C3.000036,28.663832 3.000658,28.833170 3.001280,29.002506 
z"/>
<path fill="#A18363" opacity="1.000000" stroke="none" 
	d="
M25.159760,44.664055 
	C24.835138,44.564732 24.640879,44.331024 24.196871,44.013950 
	C23.156885,42.085293 22.308908,40.287971 21.363441,37.950954 
	C21.495426,36.582119 21.724903,35.752979 21.978119,34.934616 
	C22.001860,34.945393 21.987553,34.994499 22.324871,34.966255 
	C23.455765,34.320549 24.249338,33.703087 25.246033,33.080078 
	C25.449152,33.074532 25.855434,33.083912 25.898380,33.311768 
	C25.941324,33.539623 26.000000,33.999634 25.989553,34.419746 
	C26.006195,36.246368 26.033281,37.652882 26.008408,39.346848 
	C25.945375,40.760475 25.934305,41.886654 25.923233,43.012829 
	C25.731443,43.502457 25.539652,43.992081 25.159760,44.664055 
z"/>
<path fill="#9C846F" opacity="1.000000" stroke="none" 
	d="
M21.954378,34.923836 
	C21.724903,35.752979 21.495426,36.582119 21.132061,37.708538 
	C19.545538,38.168732 18.092907,38.331642 16.342268,38.694408 
	C15.522660,38.665478 15.001058,38.436699 14.220793,38.087791 
	C14.069157,37.634747 14.176184,37.301819 14.611114,36.649979 
	C15.289881,36.225090 15.640746,36.119118 16.040903,35.995338 
	C16.090195,35.977531 15.972281,36.007004 16.087872,35.802742 
	C16.203461,35.598476 16.402746,35.173473 16.799580,35.185276 
	C18.782402,35.105999 20.368389,35.014919 21.954378,34.923836 
z"/>
<path fill="#6D543E" opacity="1.000000" stroke="none" 
	d="
M16.563328,38.797928 
	C16.624857,39.043571 16.567614,39.269505 16.312004,39.783146 
	C16.077316,39.888180 16.041000,39.705502 15.997315,39.243584 
	C15.989946,38.964336 16.444555,38.778221 16.563328,38.797928 
z"/>
<path fill="#998877" opacity="1.000000" stroke="none" 
	d="
M12.165386,34.388126 
	C12.065926,35.377037 11.966464,36.365948 11.831486,37.727379 
	C11.401248,38.077816 11.006528,38.055737 10.315592,38.014015 
	C10.019376,37.994366 9.735018,38.062313 9.721804,37.635475 
	C9.856071,35.799839 10.003550,34.391041 10.460952,33.058357 
	C11.235711,33.552364 11.700549,33.970245 12.165386,34.388126 
z"/>
<path fill="#A59678" opacity="1.000000" stroke="none" 
	d="
M12.398798,34.335297 
	C11.700549,33.970245 11.235711,33.552364 10.414722,32.727478 
	C10.012760,31.878723 9.966950,31.436964 10.013121,30.706654 
	C10.157482,29.818184 10.209864,29.218266 10.552359,28.455616 
	C11.691248,27.581530 12.540024,26.870171 13.559821,26.165218 
	C14.082040,25.941397 14.433235,25.711168 14.870155,25.294807 
	C15.310548,25.049089 15.665217,24.989500 16.034431,25.177160 
	C16.051998,25.931847 16.055021,26.439283 15.808405,27.248684 
	C15.404041,29.127817 15.249316,30.704992 14.928530,32.510887 
	C14.211737,33.246128 13.661006,33.752651 13.110274,34.259171 
	C13.110274,34.259171 12.632211,34.282471 12.398798,34.335297 
z"/>
<path fill="#2B170A" opacity="1.000000" stroke="none" 
	d="
M13.177211,34.421791 
	C13.661006,33.752651 14.211737,33.246128 15.315125,32.546181 
	C17.869808,32.690346 19.871834,33.027939 21.859360,33.638618 
	C21.892424,34.272640 21.939989,34.633568 21.987553,34.994499 
	C21.987553,34.994499 22.001860,34.945393 21.978119,34.934616 
	C20.368389,35.014919 18.782402,35.105999 16.410048,35.138420 
	C14.852895,35.029724 14.082108,34.979683 13.311321,34.929642 
	C13.311321,34.929642 13.244147,34.584408 13.177211,34.421791 
z"/>
<path fill="#36200B" opacity="1.000000" stroke="none" 
	d="
M13.421388,35.227226 
	C14.082108,34.979683 14.852895,35.029724 16.013214,35.126617 
	C16.402746,35.173473 16.203461,35.598476 16.092688,35.801228 
	C15.981915,36.003979 15.991611,36.013145 15.991611,36.013145 
	C15.640746,36.119118 15.289881,36.225090 14.672338,36.393776 
	C14.114258,36.145924 13.822856,35.835369 13.421388,35.227226 
z"/>
<path fill="#0B7EC7" opacity="1.000000" stroke="none" 
	d="
M13.634087,6.036888 
	C13.964854,8.043304 13.918962,10.068494 13.673311,12.495943 
	C13.292157,12.920185 13.110760,12.942167 12.562560,12.969374 
	C11.461637,12.979598 10.727514,12.984597 9.993392,12.989595 
	C10.246747,10.285384 9.237714,6.986924 13.634087,6.036888 
z"/>
<path fill="#1678B9" opacity="1.000000" stroke="none" 
	d="
M8.863441,22.891817 
	C8.574809,20.533339 8.286179,18.174858 7.998551,15.400797 
	C8.449670,14.976457 8.899785,14.967700 9.860595,15.009499 
	C10.598619,15.159771 10.801339,15.296086 10.931761,15.829696 
	C11.154895,16.823959 11.425721,17.457527 11.698170,18.116804 
	C11.699791,18.142511 11.738925,18.176018 11.641497,18.481501 
	C11.468612,19.427046 11.393154,20.067110 11.259512,20.630756 
	C11.201326,20.554342 11.030139,20.641485 10.832697,20.585026 
	C10.527785,21.003956 10.420314,21.479345 10.190252,22.194275 
	C10.020184,22.606806 9.972706,22.779799 9.689861,22.931435 
	C9.454495,22.910078 8.987118,22.980589 8.955911,22.958797 
	C8.924704,22.937006 8.863441,22.891817 8.863441,22.891817 
z"/>
<path fill="#1E84B9" opacity="1.000000" stroke="none" 
	d="
M10.979452,15.469002 
	C10.801339,15.296086 10.598619,15.159771 10.198076,14.998620 
	C10.014967,14.505061 10.005071,14.072937 9.994284,13.315205 
	C10.727514,12.984597 11.461637,12.979598 12.673578,13.190336 
	C13.422964,13.814119 13.694531,14.222165 13.745751,14.739285 
	C13.525404,14.848357 13.038713,14.918585 13.023001,14.949987 
	C13.007289,14.981391 12.775005,14.978378 12.327294,15.105343 
	C11.579539,15.311206 11.279496,15.390103 10.979452,15.469002 
z"/>
<path fill="#141A1B" opacity="1.000000" stroke="none" 
	d="
M45.147282,36.126522 
	C45.044453,36.565315 44.941628,37.004112 44.714100,37.759285 
	C44.106392,38.326187 43.623383,38.576710 43.000923,39.072163 
	C42.457600,38.680012 42.053734,38.042923 41.606857,36.879013 
	C41.661221,35.907784 41.758598,35.463371 42.112244,34.982353 
	C42.890697,34.392044 43.412884,33.838333 44.125038,33.259155 
	C44.315006,33.233681 44.689995,33.154118 44.756950,33.522614 
	C44.931698,34.636250 45.039490,35.381386 45.147282,36.126522 
z"/>
<path fill="#EFE5CD" opacity="1.000000" stroke="none" 
	d="
M41.855976,35.018959 
	C41.758598,35.463371 41.661221,35.907784 41.418213,36.662842 
	C41.083378,36.989948 40.894169,37.006416 40.141758,37.032440 
	C39.394283,37.060123 39.210003,37.078259 38.890465,37.056606 
	C38.755199,37.016823 38.474693,37.038296 38.479683,37.022324 
	C38.484676,37.006348 38.489330,36.973869 38.819946,36.670471 
	C39.141083,34.948589 39.131599,33.530109 39.094284,31.936029 
	C39.043785,31.514246 39.033737,31.267546 39.365364,31.013023 
	C40.133255,31.001293 40.572090,30.996868 41.149422,31.389179 
	C41.477264,32.863598 41.666622,33.941277 41.855976,35.018959 
z"/>
<path fill="#F8D7B6" opacity="1.000000" stroke="none" 
	d="
M39.025726,37.096390 
	C39.210003,37.078259 39.394283,37.060123 39.857407,37.049896 
	C39.920410,37.889656 39.704567,38.721516 39.275055,39.796158 
	C39.048317,39.867607 39.035248,39.696266 39.012524,38.948273 
	C39.010487,37.946545 39.018105,37.521469 39.025726,37.096390 
z"/>
<path fill="#D2AD8F" opacity="1.000000" stroke="none" 
	d="
M33.000980,43.604401 
	C32.550270,43.997971 32.100994,43.998081 31.314392,44.004364 
	C30.812244,43.732136 30.604694,43.490437 30.125751,42.869965 
	C29.591644,41.991234 29.286196,41.527969 28.985573,40.718864 
	C28.994141,39.911892 28.997885,39.450748 28.997257,38.977051 
	C28.992886,38.964493 29.003414,38.939133 29.378389,38.960121 
	C30.751192,38.990715 31.749022,39.000324 32.865547,39.259926 
	C32.983456,39.694412 32.982670,39.878906 32.981884,40.063396 
	C32.988728,41.112576 32.995575,42.161758 33.000980,43.604401 
z"/>
<path fill="#ECC8A5" opacity="1.000000" stroke="none" 
	d="
M29.001629,38.989609 
	C28.997885,39.450748 28.994141,39.911892 28.869820,40.964249 
	C28.507200,42.044495 28.265158,42.533527 28.023117,43.022556 
	C27.888115,43.297848 27.711744,43.543419 27.322769,43.906380 
	C26.901337,43.792763 26.651138,43.532036 26.162086,43.142071 
	C25.934305,41.886654 25.945375,40.760475 26.374609,39.334476 
	C27.529057,39.019638 28.265341,39.004623 29.001629,38.989609 
z"/>
<path fill="#F4D3B2" opacity="1.000000" stroke="none" 
	d="
M28.344749,43.020149 
	C28.265158,42.533527 28.507200,42.044495 28.864994,41.310081 
	C29.286196,41.527969 29.591644,41.991234 29.924603,42.739124 
	C29.523537,43.021744 29.094957,43.019741 28.344749,43.020149 
z"/>
<path fill="#EBC8A8" opacity="1.000000" stroke="none" 
	d="
M28.877403,48.664894 
	C28.721682,48.742420 28.534039,48.600479 28.299305,48.255081 
	C28.469110,48.147057 28.666864,48.278320 28.877403,48.664894 
z"/>
<path fill="#36200B" opacity="1.000000" stroke="none" 
	d="
M33.233807,40.172371 
	C32.982670,39.878906 32.983456,39.694412 33.016762,39.050163 
	C33.111767,38.429825 33.174252,38.269245 33.439339,37.999622 
	C33.876801,37.670212 34.012699,37.400028 34.304813,37.027397 
	C34.733673,36.976860 34.907356,36.978951 35.081039,36.981037 
	C35.151028,37.480873 35.221020,37.980709 35.269897,38.858658 
	C34.910057,39.488308 34.571320,39.739845 34.094566,40.277504 
	C33.799606,40.469532 33.642670,40.375435 33.233807,40.172371 
z"/>
<path fill="#BDA593" opacity="1.000000" stroke="none" 
	d="
M35.396027,36.993198 
	C34.907356,36.978951 34.733673,36.976860 34.041023,36.966843 
	C33.341957,36.954605 33.161850,36.950287 32.984669,36.479240 
	C32.991329,35.390209 32.995056,34.767906 33.419888,34.088539 
	C35.488781,33.883915 38.795650,37.000881 38.146530,31.978621 
	C38.344597,32.013233 38.723217,32.142754 38.723217,32.142754 
	C38.723217,32.142754 39.122116,32.111629 39.122116,32.111629 
	C39.131599,33.530109 39.141083,34.948589 38.439964,36.669025 
	C37.476799,36.973888 37.224236,36.976795 36.971672,36.979706 
	C36.551453,36.988258 36.131237,36.996811 35.396027,36.993198 
z"/>
<path fill="#E4C4A6" opacity="1.000000" stroke="none" 
	d="
M36.990486,37.325363 
	C37.224236,36.976795 37.476799,36.973888 38.109344,36.972427 
	C38.489330,36.973869 38.484676,37.006348 38.339508,37.331802 
	C38.141117,38.102791 38.087894,38.548325 38.034672,38.993858 
	C38.034672,38.993858 37.583241,39.016098 37.359371,39.033546 
	C37.093437,38.591003 37.051369,38.131012 36.990486,37.325363 
z"/>
<path fill="#E9D9BF" opacity="1.000000" stroke="none" 
	d="
M38.276070,38.996712 
	C38.087894,38.548325 38.141117,38.102791 38.334518,37.347778 
	C38.474693,37.038296 38.755199,37.016823 38.890461,37.056606 
	C39.018105,37.521469 39.010487,37.946545 39.001526,38.690750 
	C39.000187,39.009880 38.517467,38.999569 38.276070,38.996712 
z"/>
<path fill="#0C88C8" opacity="1.000000" stroke="none" 
	d="
M43.987343,8.011442 
	C44.315231,9.430380 44.643124,10.849317 44.746216,12.918190 
	C43.503483,15.603887 42.485554,17.639647 41.391434,19.853939 
	C41.042381,20.359529 40.769524,20.686588 40.460251,20.998127 
	C40.423840,20.982603 40.345737,20.995579 40.084518,20.889862 
	C39.360970,20.470760 38.898640,20.157379 38.422371,19.650650 
	C38.408428,19.457302 38.091164,19.234467 38.204437,19.131191 
	C38.317707,19.027916 38.344608,18.616222 38.344608,18.616222 
	C38.344608,18.616222 38.000034,18.462934 38.040932,18.072186 
	C38.102070,17.158043 38.122307,16.634649 38.347305,15.892570 
	C38.503441,15.121746 38.454811,14.569606 38.201580,13.833783 
	C37.286652,13.424086 36.576328,13.198071 35.916267,12.686680 
	C35.984409,12.208950 36.002293,12.016600 36.020172,11.824249 
	C35.756523,11.374032 35.492874,10.923816 35.120026,10.236890 
	C36.323502,9.248540 37.636173,8.496899 38.975739,7.376427 
	C39.002628,7.007596 38.999622,6.997313 39.333382,6.997636 
	C40.110794,6.999587 40.554451,7.001215 41.236053,7.225534 
	C42.311787,7.635965 43.149563,7.823703 43.987343,8.011442 
z"/>
<path fill="#3A4543" opacity="1.000000" stroke="none" 
	d="
M22.418955,10.339027 
	C23.726440,10.866776 25.033924,11.394526 26.791136,11.854486 
	C27.467503,11.927638 27.705109,12.046686 28.064276,12.475746 
	C28.137001,13.013016 28.099127,13.218382 28.185486,13.604418 
	C27.889265,14.547230 27.468809,15.309373 26.678251,16.064102 
	C24.854321,16.664335 23.400492,17.271982 21.726269,17.865608 
	C21.505875,17.851587 21.064283,17.842688 21.052937,17.488613 
	C20.696405,15.758793 20.351225,14.383047 20.064360,12.683260 
	C20.393465,11.761763 20.664257,11.164307 21.188984,10.573570 
	C21.768263,10.499868 22.093609,10.419448 22.418955,10.339027 
z"/>
<path fill="#438DB0" opacity="1.000000" stroke="none" 
	d="
M35.620003,11.862770 
	C36.002293,12.016600 35.984409,12.208950 35.612579,12.830946 
	C32.859505,13.314976 30.460379,13.369363 28.061251,13.423749 
	C28.099127,13.218382 28.137001,13.013016 28.260796,12.502544 
	C28.746857,12.040921 29.146994,11.884402 30.100063,11.771576 
	C31.107952,11.788171 31.562908,11.761073 32.017864,11.733974 
	C33.085186,11.789746 34.152508,11.845519 35.620003,11.862770 
z"/>
<path fill="#1891C8" opacity="1.000000" stroke="none" 
	d="
M31.945301,11.503704 
	C31.562908,11.761073 31.107952,11.788171 30.319094,11.733999 
	C30.614374,11.526297 31.243555,11.399864 31.945301,11.503704 
z"/>
<path fill="#1B88C3" opacity="1.000000" stroke="none" 
	d="
M20.935047,10.566851 
	C20.664257,11.164307 20.393465,11.761763 19.841042,12.714851 
	C19.559408,13.070484 19.125462,13.193189 18.849209,13.105913 
	C18.381802,12.990997 18.190647,12.963359 17.655531,12.921349 
	C16.854834,12.860781 16.398100,12.814587 15.941368,12.768393 
	C16.588202,12.037904 17.235035,11.307414 17.940224,10.284754 
	C18.770145,9.992566 19.541708,9.992547 20.669243,10.143373 
	C21.025217,10.294219 20.935047,10.566850 20.935047,10.566851 
z"/>
<path fill="#3D87A4" opacity="1.000000" stroke="none" 
	d="
M15.619476,12.807997 
	C16.398100,12.814587 16.854834,12.860781 17.682737,13.213334 
	C18.092871,13.710863 18.131834,13.902035 17.975628,14.241453 
	C17.503286,14.576163 17.287567,14.817542 16.861673,15.094858 
	C16.415823,15.126852 16.241598,15.177824 15.715965,15.131706 
	C14.898404,14.899815 14.432252,14.765014 13.966099,14.630212 
	C13.694531,14.222165 13.422964,13.814119 13.040379,13.185111 
	C13.110760,12.942167 13.292157,12.920185 13.739332,12.828505 
	C14.435936,12.788404 14.866761,12.818002 15.619476,12.807997 
z"/>
<path fill="#0F85CE" opacity="1.000000" stroke="none" 
	d="
M21.188982,10.573569 
	C20.935047,10.566850 21.025217,10.294219 21.054878,10.153339 
	C21.586969,9.733137 22.089399,9.453815 22.857063,9.057168 
	C23.005074,9.338563 22.887848,9.737285 22.594788,10.237516 
	C22.093609,10.419448 21.768263,10.499868 21.188982,10.573569 
z"/>
<path fill="#097AC4" opacity="1.000000" stroke="none" 
	d="
M40.998104,7.002843 
	C40.554451,7.001215 40.110794,6.999587 39.334541,6.992520 
	C39.478634,6.685154 39.955330,6.383226 40.718292,6.037118 
	C41.004559,5.992939 41.002357,5.999373 41.003288,6.249559 
	C41.002178,6.667445 41.000141,6.835144 40.998104,7.002843 
z"/>
<path fill="#1678B9" opacity="1.000000" stroke="none" 
	d="
M7.220192,26.359472 
	C7.154415,25.841978 7.088636,25.324484 7.002898,24.416718 
	C6.982938,24.026445 7.455538,23.960304 7.741249,23.998549 
	C8.026960,24.036793 8.126052,24.162704 8.117580,24.324574 
	C8.087378,24.694757 8.083517,24.903397 7.918291,25.452347 
	C7.566100,25.981377 7.393147,26.170424 7.220192,26.359472 
z"/>
<path fill="#1678B9" opacity="1.000000" stroke="none" 
	d="
M7.978481,23.973011 
	C8.073189,23.630022 8.260154,23.384094 8.677170,23.031633 
	C8.863441,22.891817 8.924704,22.937006 8.773629,23.254662 
	C8.481649,23.756216 8.340745,23.940115 8.181871,24.132629 
	C8.163902,24.141245 8.126052,24.162704 8.126052,24.162704 
	C8.126052,24.162704 8.026960,24.036793 7.978481,23.973011 
z"/>
<path fill="#292726" opacity="1.000000" stroke="none" 
	d="
M9.921141,30.995205 
	C9.966950,31.436964 10.012760,31.878723 10.104800,32.651360 
	C10.003550,34.391041 9.856071,35.799839 9.577320,37.613258 
	C8.796769,37.159496 8.147488,36.301121 7.287355,35.281948 
	C7.036588,34.611141 6.996671,34.101135 6.952831,32.994377 
	C6.948908,32.397625 7.012292,31.963314 7.026102,31.739119 
	C7.039911,31.514923 7.014239,31.065542 7.076154,31.030569 
	C7.138070,30.995596 7.262605,31.064280 7.594500,31.043514 
	C8.591310,31.013569 9.256225,31.004387 9.921141,30.995205 
z"/>
<path fill="#2E5E8C" opacity="1.000000" stroke="none" 
	d="
M3.899284,33.314713 
	C3.879496,32.592308 3.914329,32.140461 3.942643,31.349195 
	C4.107339,31.000908 4.278553,30.992035 4.759286,31.313335 
	C5.113660,31.866669 5.158516,32.089832 5.203373,32.312996 
	C4.976119,32.807781 4.748865,33.302563 4.297143,33.960854 
	C4.033085,33.944660 3.993495,33.764961 3.899284,33.314713 
z"/>
<path fill="#2B597F" opacity="1.000000" stroke="none" 
	d="
M5.075514,35.643852 
	C4.832188,35.770264 4.635777,35.752419 4.150573,35.661293 
	C3.861780,35.588017 3.913598,35.354794 3.945392,35.241684 
	C4.358933,35.252251 4.740682,35.375927 5.075514,35.643852 
z"/>
<path fill="#2B597F" opacity="1.000000" stroke="none" 
	d="
M5.389971,32.254211 
	C5.158516,32.089832 5.113660,31.866669 5.016339,31.305748 
	C4.963874,30.967989 4.975366,30.954327 5.226429,30.930115 
	C5.477491,30.905905 5.967168,30.810112 6.007903,30.889824 
	C6.048637,30.969538 6.091912,31.143263 6.094903,31.342098 
	C6.097895,31.540934 6.067088,31.937456 6.036316,31.969532 
	C6.005545,32.001606 5.946563,32.068119 5.946563,32.068119 
	C5.946563,32.068119 5.576570,32.195423 5.389971,32.254211 
z"/>
<path fill="#2B597F" opacity="1.000000" stroke="none" 
	d="
M7.012292,31.963314 
	C7.012292,31.963314 6.948908,32.397625 6.917317,32.613525 
	C6.633047,32.721115 6.406420,32.572948 6.076203,32.226524 
	C5.946563,32.068119 6.005545,32.001606 6.272010,31.982014 
	C6.538476,31.962421 7.012292,31.963314 7.012292,31.963314 
z"/>
<path fill="#0D82CB" opacity="1.000000" stroke="none" 
	d="
M41.467625,19.675407 
	C42.485554,17.639647 43.503483,15.603887 44.759422,13.284252 
	C45.786839,13.950390 46.576248,14.900401 47.671219,15.930304 
	C47.692772,17.758450 47.408772,19.506701 46.658676,21.628187 
	C45.119270,22.013359 44.045959,22.025299 42.718105,21.964508 
	C42.310390,21.804098 42.157223,21.716413 41.942909,21.383389 
	C41.832699,20.976782 41.783627,20.815516 41.685585,20.490627 
	C41.589066,20.107529 41.532734,19.890329 41.467625,19.675407 
z"/>
<path fill="#1380C3" opacity="1.000000" stroke="none" 
	d="
M42.972656,22.037237 
	C44.045959,22.025299 45.119270,22.013359 46.595016,22.003147 
	C46.544430,22.890255 46.091396,23.775637 44.962685,24.781300 
	C43.733143,24.824329 43.179283,24.747078 42.514839,24.601677 
	C42.404251,24.533531 42.231052,24.329142 42.410194,23.967094 
	C42.717106,23.082443 42.844879,22.559841 42.972656,22.037237 
z"/>
<path fill="#277FB0" opacity="1.000000" stroke="none" 
	d="
M42.625423,24.669825 
	C43.179283,24.747078 43.733143,24.824329 44.705608,24.953251 
	C45.099667,25.450218 45.075119,25.895519 44.829727,26.811302 
	C44.339577,27.472998 44.138794,27.719933 44.006542,28.022587 
	C44.006542,28.022587 44.020855,27.986687 43.760788,28.020092 
	C43.319317,28.071793 43.137920,28.090088 42.949242,27.820663 
	C42.872864,27.156431 42.803764,26.779915 42.713413,25.958342 
	C42.571796,25.241724 42.451427,24.970161 42.398319,24.626629 
	C42.465580,24.554661 42.625423,24.669825 42.625423,24.669825 
z"/>
<path fill="#1F2E39" opacity="1.000000" stroke="none" 
	d="
M44.689995,33.154118 
	C44.689995,33.154118 44.315006,33.233681 43.932930,33.000492 
	C43.329121,32.177208 43.107384,31.587112 42.916985,30.999203 
	C42.948315,31.001390 43.008606,31.001596 43.190296,30.882812 
	C43.604324,30.579107 43.769783,30.346598 43.937653,30.031725 
	C44.006943,29.996948 44.153500,29.946327 44.153500,29.946327 
	C44.153500,29.946327 44.646099,29.930820 44.891922,29.960030 
	C45.093513,30.163050 45.049278,30.336861 44.961578,31.131989 
	C44.842075,32.220242 44.766037,32.687180 44.689995,33.154118 
z"/>
<path fill="#2D302E" opacity="1.000000" stroke="none" 
	d="
M42.956520,28.108381 
	C43.137920,28.090088 43.319317,28.071793 43.773605,28.034569 
	C44.085659,28.444044 44.124832,28.872448 44.158752,29.623590 
	C44.153500,29.946327 44.006943,29.996948 43.715454,30.002045 
	C43.423962,30.007139 42.975464,29.964165 42.965118,29.654701 
	C42.955357,28.932953 42.955940,28.520666 42.956520,28.108381 
z"/>
<path fill="#3A677A" opacity="1.000000" stroke="none" 
	d="
M44.228764,27.917202 
	C44.138794,27.719933 44.339577,27.472998 44.807491,27.145088 
	C44.886108,27.321148 44.701073,27.588957 44.228764,27.917202 
z"/>
<path fill="#0973BF" opacity="1.000000" stroke="none" 
	d="
M41.236053,7.225534 
	C41.000141,6.835144 41.002178,6.667445 41.008255,6.248166 
	C41.453152,5.996699 41.894012,5.996811 42.770054,6.118969 
	C43.205238,6.241015 43.643707,6.304527 43.643707,6.304527 
	C43.643707,6.304527 43.997932,6.002937 43.997932,6.002937 
	C44.150467,5.718197 44.351337,5.473068 44.798897,5.134515 
	C45.572277,5.498360 46.147305,5.995240 46.861931,6.745382 
	C46.999989,7.166931 46.998455,7.335218 46.993542,7.756031 
	C46.239716,8.007204 45.489265,8.005852 44.363079,8.007971 
	C43.149563,7.823703 42.311787,7.635965 41.236053,7.225534 
z"/>
<path fill="#0D3658" opacity="1.000000" stroke="none" 
	d="
M47.192848,36.744404 
	C46.841793,36.637634 46.624077,36.452232 46.184612,35.783157 
	C46.049702,34.413708 46.098995,33.572025 46.148293,32.730339 
	C46.535583,32.626736 46.922874,32.523129 47.499855,32.384499 
	C47.763603,33.314087 47.837658,34.278706 47.908302,35.611591 
	C47.758320,36.222321 47.577934,36.436264 47.192848,36.744404 
z"/>
<path fill="#264057" opacity="1.000000" stroke="none" 
	d="
M46.086056,32.470440 
	C46.098995,33.572025 46.049702,34.413708 45.996040,35.676891 
	C45.991673,36.098389 45.568722,36.123920 45.358002,36.125221 
	C45.039490,35.381386 44.931698,34.636250 44.756950,33.522614 
	C44.766037,32.687180 44.842075,32.220242 44.948376,31.400690 
	C45.327030,31.435566 45.675423,31.823053 46.086056,32.470440 
z"/>
<path fill="#097AC4" opacity="1.000000" stroke="none" 
	d="
M43.747551,6.001638 
	C43.997932,6.002937 43.643707,6.304527 43.643707,6.304527 
	C43.643707,6.304527 43.205238,6.241015 43.100826,6.119586 
	C43.163338,5.998885 43.330257,5.999612 43.747551,6.001638 
z"/>
<path fill="#29221D" opacity="1.000000" stroke="none" 
	d="
M10.013121,30.706654 
	C9.256225,31.004387 8.591310,31.013569 7.549820,30.647045 
	C7.107590,29.476185 7.041934,28.681026 6.976279,27.885868 
	C7.079672,27.549927 7.183064,27.213987 7.253325,26.618759 
	C7.393147,26.170424 7.566100,25.981377 7.922949,25.653111 
	C8.106845,25.513889 8.316190,25.835144 8.321369,26.017788 
	C8.442096,26.415045 8.562758,26.626741 9.001224,27.083668 
	C9.630021,27.760658 9.946133,28.189503 10.262244,28.618347 
	C10.209864,29.218266 10.157482,29.818184 10.013121,30.706654 
z"/>
<path fill="#276C9D" opacity="1.000000" stroke="none" 
	d="
M6.731864,27.906311 
	C7.041934,28.681026 7.107590,29.476185 7.217925,30.667812 
	C7.262605,31.064280 7.138070,30.995596 6.844193,31.033875 
	C6.550317,31.072155 6.091912,31.143263 6.091912,31.143263 
	C6.091912,31.143263 6.048637,30.969538 5.978225,30.617752 
	C5.871367,30.085768 5.834922,29.905573 5.817260,29.438358 
	C5.892260,28.772148 5.948476,28.392958 6.004692,28.013767 
	C6.004692,28.013767 6.487449,27.926752 6.731864,27.906311 
z"/>
<path fill="#085AAD" opacity="1.000000" stroke="none" 
	d="
M5.998832,28.007088 
	C5.948476,28.392958 5.892260,28.772148 5.637964,29.468891 
	C5.439885,29.786446 5.075322,29.759605 5.075322,29.759605 
	C5.075322,29.759605 5.037863,29.326765 5.003196,29.111055 
	C4.968529,28.895346 4.986312,28.517511 5.236008,28.291180 
	C5.485704,28.064848 5.976727,27.993061 5.976727,27.993061 
	C5.976727,27.993061 5.992973,28.000408 5.998832,28.007088 
z"/>
<path fill="#256399" opacity="1.000000" stroke="none" 
	d="
M5.871231,27.861290 
	C5.976727,27.993061 5.485704,28.064848 5.240015,28.102097 
	C5.251462,28.002735 5.508599,27.866127 5.871231,27.861290 
z"/>
<path fill="#0D5BAA" opacity="1.000000" stroke="none" 
	d="
M3.253155,28.994007 
	C3.000658,28.833170 3.000036,28.663832 2.998695,28.240360 
	C3.283722,28.130096 3.530641,28.323521 3.873386,28.759914 
	C3.840369,28.964058 3.672700,28.974785 3.253155,28.994007 
z"/>
<path fill="#256399" opacity="1.000000" stroke="none" 
	d="
M5.043930,30.052979 
	C5.075322,29.759605 5.439885,29.786446 5.619180,29.755911 
	C5.834922,29.905573 5.871367,30.085768 5.937490,30.538038 
	C5.967168,30.810112 5.477491,30.905905 5.228312,30.920702 
	C4.990269,30.739115 5.001404,30.542732 5.043930,30.052979 
z"/>
<path fill="#C8A580" opacity="1.000000" stroke="none" 
	d="
M28.997257,38.977051 
	C28.265341,39.004623 27.529057,39.019638 26.426571,39.047024 
	C26.033281,37.652882 26.006195,36.246368 26.345037,34.419304 
	C27.421434,33.991070 28.131901,33.983387 28.898829,34.388542 
	C28.971331,36.180630 28.987371,37.559879 29.003414,38.939133 
	C29.003414,38.939133 28.992886,38.964493 28.997257,38.977051 
z"/>
<path fill="#C9A885" opacity="1.000000" stroke="none" 
	d="
M28.842367,33.975708 
	C28.131901,33.983387 27.421434,33.991070 26.355484,33.999191 
	C26.000000,33.999634 25.941324,33.539623 25.937822,32.970398 
	C25.945457,31.945566 25.956593,31.489964 25.978460,30.694809 
	C25.994631,29.903244 26.000071,29.451229 26.361809,29.020000 
	C27.489796,30.016565 28.261482,30.992348 29.057858,32.243210 
	C29.124470,32.697575 29.166397,32.876858 29.123989,33.288879 
	C29.039650,33.521618 28.842367,33.975708 28.842367,33.975708 
z"/>
<path fill="#AE906E" opacity="1.000000" stroke="none" 
	d="
M22.324871,34.966255 
	C21.939989,34.633568 21.892424,34.272640 21.940355,33.298435 
	C22.691240,32.122047 23.346628,31.558935 24.250122,31.002537 
	C24.498228,31.009253 24.993946,31.035736 24.996971,31.376905 
	C25.014301,32.173923 25.028606,32.629776 25.042913,33.085625 
	C24.249338,33.703087 23.455765,34.320549 22.324871,34.966255 
z"/>
<path fill="#B3916E" opacity="1.000000" stroke="none" 
	d="
M25.246033,33.080078 
	C25.028606,32.629776 25.014301,32.173923 25.240448,31.373413 
	C25.480904,31.028751 25.967730,31.034361 25.967730,31.034361 
	C25.956593,31.489964 25.945457,31.945566 25.894878,32.742538 
	C25.855434,33.083912 25.449152,33.074532 25.246033,33.080078 
z"/>
<path fill="#36200B" opacity="1.000000" stroke="none" 
	d="
M15.977098,36.005493 
	C15.972281,36.007004 16.090195,35.977531 16.040903,35.995338 
	C15.991611,36.013145 15.981915,36.003979 15.977098,36.005493 
z"/>
<path fill="#29221D" opacity="1.000000" stroke="none" 
	d="
M13.745751,14.739285 
	C14.432252,14.765014 14.898404,14.899815 15.891623,15.298921 
	C16.874958,15.693591 17.331228,15.823957 18.027071,16.177856 
	C18.520758,17.001019 18.774872,17.600651 19.181070,18.494930 
	C19.257755,20.287323 19.182354,21.785067 19.194786,23.491852 
	C19.282618,23.700893 19.328695,24.152510 18.890610,24.107763 
	C17.641645,24.351982 16.830767,24.640947 16.019886,24.929913 
	C15.665217,24.989500 15.310548,25.049089 14.476755,25.219925 
	C13.731409,25.335703 13.465187,25.340231 13.152847,24.912903 
	C13.069071,23.323734 13.031411,22.166422 13.282854,20.871019 
	C14.431012,20.127836 15.290069,19.522743 17.202028,18.176018 
	C14.542076,18.176018 13.140500,18.176018 11.738925,18.176018 
	C11.738925,18.176018 11.699791,18.142511 11.908443,17.928951 
	C12.408308,17.484804 12.699518,17.254217 13.227867,16.979782 
	C13.440619,16.486212 13.416233,16.036489 13.345426,15.397598 
	C13.299004,15.208428 13.038713,14.918585 13.038713,14.918585 
	C13.038713,14.918585 13.525404,14.848357 13.745751,14.739285 
M17.466637,21.493280 
	C17.466637,21.493280 17.518654,21.471411 17.466637,21.493280 
z"/>
<path fill="#AD9373" opacity="1.000000" stroke="none" 
	d="
M24.002016,30.995821 
	C23.346628,31.558935 22.691240,32.122047 21.954857,33.025345 
	C19.871834,33.027939 17.869808,32.690346 15.481186,32.317459 
	C15.249316,30.704992 15.404041,29.127817 16.217283,27.264395 
	C18.248203,26.988300 19.620607,26.998455 21.147919,27.280987 
	C22.202557,28.700850 23.102285,29.848335 24.002016,30.995821 
z"/>
<path fill="#211E18" opacity="1.000000" stroke="none" 
	d="
M12.993752,21.009109 
	C13.031411,22.166422 13.069071,23.323734 13.181448,25.120251 
	C13.256166,25.759455 13.388800,26.158813 13.388800,26.158813 
	C12.540024,26.870171 11.691248,27.581530 10.552359,28.455616 
	C9.946133,28.189503 9.630021,27.760658 8.895257,26.837635 
	C8.407834,26.177999 8.339063,26.012547 8.418640,25.619690 
	C8.686761,25.256565 8.806535,25.120850 9.164940,24.905684 
	C9.577458,24.201754 9.751343,23.577272 9.925227,22.952793 
	C9.972706,22.779799 10.020184,22.606806 10.375805,22.019495 
	C10.799344,21.283947 10.914742,20.962717 11.030140,20.641485 
	C11.030139,20.641485 11.201326,20.554342 11.677864,20.718983 
	C12.434186,20.925451 12.713969,20.967279 12.993752,21.009109 
z"/>
<path fill="#B69B7A" opacity="1.000000" stroke="none" 
	d="
M20.993008,27.008610 
	C19.620607,26.998455 18.248203,26.988300 16.466923,26.962433 
	C16.055021,26.439283 16.051998,25.931847 16.034431,25.177160 
	C16.830767,24.640947 17.641645,24.351982 19.132008,24.262711 
	C20.205328,25.311138 20.599169,26.159874 20.993008,27.008610 
z"/>
<path fill="#81775F" opacity="1.000000" stroke="none" 
	d="
M13.559822,26.165220 
	C13.388800,26.158813 13.256166,25.759455 13.227566,25.552109 
	C13.465187,25.340231 13.731409,25.335703 14.391031,25.406055 
	C14.433235,25.711168 14.082040,25.941397 13.559822,26.165220 
z"/>
<path fill="#292723" opacity="1.000000" stroke="none" 
	d="
M13.282854,20.871019 
	C12.713969,20.967279 12.434186,20.925451 11.736050,20.795397 
	C11.393154,20.067110 11.468612,19.427046 11.641497,18.481501 
	C13.140500,18.176018 14.542076,18.176018 17.202028,18.176018 
	C15.290069,19.522743 14.431012,20.127836 13.282854,20.871019 
z"/>
<path fill="#18272A" opacity="1.000000" stroke="none" 
	d="
M12.990728,17.023630 
	C12.699518,17.254217 12.408308,17.484804 11.906822,17.903244 
	C11.425721,17.457527 11.154895,16.823959 10.931761,15.829696 
	C11.279496,15.390103 11.579539,15.311206 12.359070,15.280394 
	C12.838557,15.328481 13.055176,15.611431 13.034610,15.964278 
	C13.006271,16.552628 12.998500,16.788128 12.990728,17.023630 
z"/>
<path fill="#1F2E39" opacity="1.000000" stroke="none" 
	d="
M9.689861,22.931435 
	C9.751343,23.577272 9.577458,24.201754 8.991753,24.683451 
	C8.453236,24.401785 8.326538,24.262899 8.199841,24.124016 
	C8.340745,23.940115 8.481649,23.756216 8.804836,23.276451 
	C8.987118,22.980589 9.454495,22.910078 9.689861,22.931435 
z"/>
<path fill="#1F2E39" opacity="1.000000" stroke="none" 
	d="
M10.832698,20.585026 
	C10.914742,20.962717 10.799344,21.283947 10.498394,21.779957 
	C10.420314,21.479345 10.527785,21.003956 10.832698,20.585026 
z"/>
<path fill="#1678B9" opacity="1.000000" stroke="none" 
	d="
M13.055176,15.611431 
	C13.055176,15.611431 12.838557,15.328481 12.806782,15.153429 
	C12.775005,14.978378 13.007289,14.981391 13.023001,14.949987 
	C13.038713,14.918585 13.299004,15.208428 13.260546,15.364851 
	C13.222088,15.521274 13.055176,15.611431 13.055176,15.611431 
z"/>
<path fill="#1A1610" opacity="1.000000" stroke="none" 
	d="
M42.885651,30.997017 
	C43.107384,31.587112 43.329121,32.177208 43.742962,33.025963 
	C43.412884,33.838333 42.890697,34.392044 42.112244,34.982353 
	C41.666622,33.941277 41.477264,32.863598 41.211731,31.062035 
	C41.069935,29.900019 41.004314,29.461887 41.131454,29.224575 
	C41.844692,29.949268 42.365173,30.473143 42.885651,30.997017 
z"/>
<path fill="#EED6B7" opacity="1.000000" stroke="none" 
	d="
M40.938698,29.023756 
	C41.004314,29.461887 41.069935,29.900019 41.073242,30.665298 
	C40.572090,30.996868 40.133255,31.001293 38.961891,31.081026 
	C37.961571,31.206867 37.693783,31.257401 37.157169,31.373932 
	C36.598217,31.230545 36.308098,31.021158 36.023643,30.478949 
	C35.682018,29.100479 35.334728,28.054831 34.991776,26.664040 
	C35.001297,25.858799 35.006485,25.398705 35.344200,24.959074 
	C36.339046,25.007305 37.001358,25.035072 37.933449,25.259182 
	C39.115051,26.644936 40.026871,27.834345 40.938698,29.023756 
z"/>
<path fill="#E9D9BF" opacity="1.000000" stroke="none" 
	d="
M37.425999,31.307932 
	C37.693783,31.257401 37.961571,31.206867 38.632835,31.088329 
	C39.033737,31.267546 39.043785,31.514246 39.094284,31.936029 
	C39.122116,32.111629 38.723217,32.142754 38.723217,32.142754 
	C38.723217,32.142754 38.344597,32.013233 37.958527,31.867134 
	C37.572456,31.721035 37.425999,31.307932 37.425999,31.307932 
z"/>
<path fill="#CAA78A" opacity="1.000000" stroke="none" 
	d="
M28.898829,34.388542 
	C28.842367,33.975708 29.039650,33.521618 29.187042,33.281010 
	C29.334433,33.040401 29.462526,33.014881 29.658468,33.440712 
	C29.953222,34.163002 30.052034,34.459465 30.393333,34.786751 
	C30.635817,34.817566 31.126663,34.857689 31.126663,34.857689 
	C31.126663,34.857689 31.619106,34.850842 31.739681,34.579704 
	C32.239765,34.254246 32.619278,34.199921 32.998787,34.145599 
	C32.995056,34.767906 32.991329,35.390209 33.006424,36.779533 
	C33.095745,37.733917 33.166241,37.921288 33.236736,38.108662 
	C33.174252,38.269245 33.111767,38.429825 32.898064,38.800167 
	C31.749022,39.000324 30.751192,38.990715 29.378387,38.960121 
	C28.987371,37.559879 28.971331,36.180630 28.898829,34.388542 
z"/>
<path fill="#745948" opacity="1.000000" stroke="none" 
	d="
M33.439339,37.999622 
	C33.166241,37.921288 33.095745,37.733917 33.003494,37.246258 
	C33.161850,36.950287 33.341957,36.954605 33.785851,37.019474 
	C34.012699,37.400028 33.876801,37.670212 33.439339,37.999622 
z"/>
<path fill="#36200B" opacity="1.000000" stroke="none" 
	d="
M30.150848,34.755928 
	C30.052034,34.459465 29.953222,34.163002 29.889694,33.245640 
	C30.008354,32.441360 30.091728,32.257980 30.490967,32.049889 
	C31.536589,31.684835 32.266350,31.344490 33.374996,31.079802 
	C34.508579,31.040895 35.263279,30.926334 36.017975,30.811771 
	C36.308098,31.021158 36.598217,31.230545 37.157169,31.373932 
	C37.425999,31.307932 37.572456,31.721035 37.760460,31.832521 
	C38.795650,37.000881 35.488781,33.883915 33.419888,34.088539 
	C32.619278,34.199921 32.239765,34.254246 31.537704,34.363365 
	C30.860382,34.530754 30.505615,34.643341 30.150848,34.755928 
z"/>
<path fill="#333430" opacity="1.000000" stroke="none" 
	d="
M28.185486,13.604418 
	C30.460379,13.369363 32.859505,13.314976 35.562317,13.116323 
	C36.576328,13.198071 37.286652,13.424086 38.067993,14.064947 
	C38.140186,15.023616 38.141365,15.567435 38.142544,16.111256 
	C38.122307,16.634649 38.102070,17.158043 38.079636,18.261717 
	C38.077442,18.841997 38.091164,19.234467 38.091164,19.234467 
	C38.091164,19.234467 38.408428,19.457302 37.989899,19.689676 
	C36.713448,19.935083 35.855526,19.948118 34.827972,19.689009 
	C33.723209,18.977528 32.788078,18.538191 31.531361,18.052151 
	C30.400274,17.701426 29.590776,17.397402 28.640451,16.869568 
	C28.015869,16.454344 27.532112,16.262930 27.048355,16.071516 
	C27.468809,15.309373 27.889265,14.547230 28.185486,13.604418 
z"/>
<path fill="#25281E" opacity="1.000000" stroke="none" 
	d="
M34.997604,19.961153 
	C35.855526,19.948118 36.713448,19.935083 38.003838,19.883024 
	C38.898640,20.157379 39.360970,20.470760 40.018333,21.273104 
	C40.196152,22.021009 40.178940,22.279957 40.079666,22.590128 
	C39.997612,22.641350 39.855717,22.386576 39.460472,22.720058 
	C38.804115,23.278660 38.543007,23.503777 38.320679,23.737782 
	C38.359459,23.746670 38.275440,23.728445 38.153122,23.849873 
	C38.030804,23.971298 37.786293,24.214283 37.468628,24.163237 
	C36.774258,23.912903 36.397545,23.713615 35.952427,23.213573 
	C35.588547,21.928930 35.293076,20.945042 34.997604,19.961153 
z"/>
<path fill="#1380C3" opacity="1.000000" stroke="none" 
	d="
M40.161724,22.538906 
	C40.178940,22.279957 40.196152,22.021009 40.279549,21.378822 
	C40.345737,20.995579 40.423840,20.982603 40.773643,20.918034 
	C41.327152,20.787058 41.530857,20.720654 41.734558,20.654251 
	C41.783627,20.815516 41.832699,20.976782 41.834084,21.768173 
	C41.733509,22.657316 41.680626,22.916328 41.478802,23.013847 
	C40.919582,22.729794 40.509308,22.607231 40.116329,22.495090 
	C40.133625,22.505512 40.161724,22.538906 40.161724,22.538906 
z"/>
<path fill="#386B86" opacity="1.000000" stroke="none" 
	d="
M38.347305,15.892570 
	C38.141365,15.567435 38.140186,15.023616 38.272598,14.248631 
	C38.454811,14.569606 38.503441,15.121746 38.347305,15.892570 
z"/>
<path fill="#315261" opacity="1.000000" stroke="none" 
	d="
M41.685585,20.490627 
	C41.530857,20.720654 41.327152,20.787058 40.810059,20.933556 
	C40.769524,20.686588 41.042381,20.359529 41.391434,19.853939 
	C41.532734,19.890329 41.589066,20.107529 41.685585,20.490627 
z"/>
<path fill="#25281E" opacity="1.000000" stroke="none" 
	d="
M38.204437,19.131191 
	C38.091164,19.234467 38.077442,18.841997 38.038738,18.652466 
	C38.000034,18.462934 38.344608,18.616222 38.344608,18.616222 
	C38.344608,18.616222 38.317707,19.027916 38.204437,19.131191 
z"/>
<path fill="#111009" opacity="1.000000" stroke="none" 
	d="
M28.781277,17.093378 
	C29.590776,17.397402 30.400274,17.701426 31.598368,18.338017 
	C32.553165,19.863930 33.119370,21.057276 33.278992,22.394058 
	C30.255774,22.724195 27.639135,22.910894 24.684797,22.999649 
	C23.906149,23.028761 23.465199,23.155819 22.640274,23.189163 
	C21.206518,23.157902 20.156736,23.220356 19.106953,23.282810 
	C19.182354,21.785067 19.257755,20.287323 19.520786,18.440304 
	C20.160374,18.008247 20.612328,17.925468 21.064283,17.842690 
	C21.064283,17.842688 21.505875,17.851587 21.975090,18.115499 
	C24.556631,17.950733 26.668953,17.522057 28.781277,17.093378 
z"/>
<path fill="#1A1719" opacity="1.000000" stroke="none" 
	d="
M28.640451,16.869568 
	C26.668953,17.522057 24.556631,17.950733 22.195484,18.129520 
	C23.400492,17.271982 24.854321,16.664335 26.678253,16.064102 
	C27.532112,16.262930 28.015869,16.454344 28.640451,16.869568 
z"/>
<path fill="#373530" opacity="1.000000" stroke="none" 
	d="
M21.052937,17.488613 
	C20.612328,17.925468 20.160374,18.008247 19.368702,18.145657 
	C18.774872,17.600651 18.520758,17.001019 17.962605,16.008965 
	C17.522146,15.408603 17.347057,15.241034 17.133301,15.113837 
	C17.287567,14.817542 17.503286,14.576163 18.183109,14.150045 
	C18.854771,13.738405 19.034670,13.499339 19.125462,13.193189 
	C19.125462,13.193189 19.559408,13.070484 19.782726,13.038893 
	C20.351225,14.383047 20.696405,15.758793 21.052937,17.488613 
z"/>
<path fill="#29627E" opacity="1.000000" stroke="none" 
	d="
M18.849209,13.105913 
	C19.034670,13.499339 18.854771,13.738405 18.378281,14.001797 
	C18.131834,13.902035 18.092871,13.710863 18.026701,13.227707 
	C18.190647,12.963359 18.381802,12.990997 18.849209,13.105913 
z"/>
<path fill="#192B31" opacity="1.000000" stroke="none" 
	d="
M16.861673,15.094858 
	C17.347057,15.241034 17.522146,15.408603 17.723034,15.785435 
	C17.331228,15.823957 16.874958,15.693591 16.243031,15.396011 
	C16.241598,15.177824 16.415823,15.126852 16.861673,15.094858 
z"/>
<path fill="#0C72BF" opacity="1.000000" stroke="none" 
	d="
M8.181871,24.132629 
	C8.326538,24.262899 8.453236,24.401785 8.753120,24.762901 
	C8.806535,25.120850 8.686761,25.256565 8.435423,25.640854 
	C8.303859,25.889427 8.316190,25.835144 8.316190,25.835144 
	C8.316190,25.835144 8.106845,25.513889 8.102186,25.313126 
	C8.083517,24.903397 8.087378,24.694757 8.117580,24.324574 
	C8.126052,24.162704 8.163902,24.141245 8.181871,24.132629 
z"/>
<path fill="#273543" opacity="1.000000" stroke="none" 
	d="
M6.094903,31.342098 
	C6.091912,31.143263 6.550317,31.072155 6.782278,31.068848 
	C7.014239,31.065542 7.039911,31.514923 7.026102,31.739119 
	C7.012292,31.963314 6.538476,31.962421 6.302782,31.949940 
	C6.067088,31.937456 6.097895,31.540934 6.094903,31.342098 
z"/>
<path fill="#315F76" opacity="1.000000" stroke="none" 
	d="
M42.718109,21.964508 
	C42.844879,22.559841 42.717106,23.082443 42.292259,23.845423 
	C41.872707,23.782312 41.750229,23.478827 41.627747,23.175339 
	C41.680626,22.916328 41.733509,22.657316 41.895226,22.013515 
	C42.157223,21.716413 42.310390,21.804098 42.718109,21.964508 
z"/>
<path fill="#25281E" opacity="1.000000" stroke="none" 
	d="
M41.478802,23.013847 
	C41.750229,23.478827 41.872707,23.782312 42.113121,24.207470 
	C42.231052,24.329142 42.404251,24.533531 42.514839,24.601677 
	C42.625423,24.669825 42.465580,24.554661 42.228012,24.702408 
	C42.238518,25.367903 42.486591,25.885651 42.734665,26.403399 
	C42.803764,26.779915 42.872864,27.156431 42.949242,27.820663 
	C42.955940,28.520666 42.955357,28.932953 42.969879,29.914402 
	C42.992859,30.656244 43.000732,30.828920 43.008606,31.001596 
	C43.008606,31.001596 42.948315,31.001390 42.916985,30.999203 
	C42.365173,30.473143 41.844692,29.949268 41.131454,29.224575 
	C40.026871,27.834345 39.115051,26.644936 37.999084,25.052273 
	C37.794937,24.649019 37.786293,24.214283 37.786293,24.214283 
	C37.786293,24.214283 38.030804,23.971298 38.115513,23.835264 
	C38.200222,23.699230 38.281895,23.728895 38.281895,23.728895 
	C38.543007,23.503777 38.804115,23.278660 39.541061,22.692162 
	C40.016899,22.330782 40.099033,22.484671 40.099033,22.484671 
	C40.509308,22.607231 40.919582,22.729794 41.478802,23.013847 
z"/>
<path fill="#315F76" opacity="1.000000" stroke="none" 
	d="
M42.713413,25.958342 
	C42.486591,25.885651 42.238518,25.367903 42.160751,24.774376 
	C42.451427,24.970161 42.571796,25.241724 42.713413,25.958342 
z"/>
<path fill="#263337" opacity="1.000000" stroke="none" 
	d="
M43.190296,30.882812 
	C43.000732,30.828920 42.992859,30.656244 42.980225,30.223866 
	C42.975464,29.964165 43.423962,30.007139 43.646164,30.036819 
	C43.769783,30.346598 43.604324,30.579107 43.190296,30.882812 
z"/>
<path fill="#387C9F" opacity="1.000000" stroke="none" 
	d="
M8.321369,26.017788 
	C8.316190,25.835144 8.303859,25.889427 8.287075,25.868261 
	C8.339063,26.012547 8.407834,26.177999 8.582571,26.589489 
	C8.562758,26.626741 8.442096,26.415045 8.321369,26.017788 
z"/>
<path fill="#CFA885" opacity="1.000000" stroke="none" 
	d="
M25.022495,23.097595 
	C27.639135,22.910894 30.255774,22.724195 33.489479,22.642536 
	C34.287457,22.867052 34.468372,22.986532 34.697666,23.173981 
	C34.746044,23.241949 34.659164,23.387678 34.390991,23.573658 
	C33.826496,24.070385 33.530174,24.381130 33.035488,24.863049 
	C32.873753,25.695766 32.910381,26.357309 32.949150,27.417625 
	C32.966228,28.878981 32.981171,29.941563 32.996109,31.004147 
	C32.266350,31.344490 31.536589,31.684835 30.205872,32.019001 
	C29.414333,31.997925 29.223753,31.983028 29.033171,31.968130 
	C28.261482,30.992348 27.489796,30.016565 26.296333,28.644001 
	C25.539629,27.021065 25.204699,25.794907 24.957548,24.551712 
	C25.151577,24.360506 25.095778,24.225609 24.936836,23.875072 
	C25.004658,23.445974 25.013577,23.271784 25.022495,23.097595 
z"/>
<path fill="#C19F7B" opacity="1.000000" stroke="none" 
	d="
M24.869766,24.568748 
	C25.204699,25.794907 25.539629,27.021065 25.940037,28.623219 
	C26.000071,29.451229 25.994631,29.903244 25.978460,30.694809 
	C25.967730,31.034361 25.480904,31.028751 25.237425,31.032244 
	C24.993946,31.035736 24.498228,31.009253 24.250122,31.002537 
	C23.102285,29.848335 22.202557,28.700850 21.147919,27.280987 
	C20.599169,26.159874 20.205328,25.311138 19.570091,24.307457 
	C19.328695,24.152510 19.282618,23.700893 19.194786,23.491852 
	C20.156736,23.220356 21.206518,23.157902 22.761589,23.358780 
	C23.477470,23.815819 23.722584,23.943020 24.137203,24.115957 
	C24.455210,24.370108 24.654404,24.483624 24.869766,24.568748 
z"/>
<path fill="#C8A580" opacity="1.000000" stroke="none" 
	d="
M29.057858,32.243210 
	C29.223753,31.983028 29.414333,31.997925 29.890007,32.043709 
	C30.091728,32.257980 30.008354,32.441360 29.693752,32.819809 
	C29.462526,33.014881 29.334433,33.040401 29.271379,33.048271 
	C29.166397,32.876858 29.124470,32.697575 29.057858,32.243210 
z"/>
<path fill="#192B31" opacity="1.000000" stroke="none" 
	d="
M13.034610,15.964278 
	C13.055176,15.611431 13.222088,15.521274 13.306968,15.554020 
	C13.416233,16.036489 13.440619,16.486212 13.227867,16.979782 
	C12.998500,16.788128 13.006271,16.552628 13.034610,15.964278 
z"/>
<path fill="#1A1610" opacity="1.000000" stroke="none" 
	d="
M17.492645,21.482346 
	C17.518654,21.471411 17.466637,21.493280 17.492645,21.482346 
z"/>
<path fill="#E4C4A6" opacity="1.000000" stroke="none" 
	d="
M33.375000,31.079803 
	C32.981171,29.941563 32.966228,28.878981 33.289974,27.412113 
	C34.081589,27.008282 34.534512,27.008732 34.987438,27.009184 
	C35.334728,28.054831 35.682018,29.100479 36.023643,30.478951 
	C35.263279,30.926334 34.508579,31.040895 33.375000,31.079803 
z"/>
<path fill="#ECC8A5" opacity="1.000000" stroke="none" 
	d="
M34.991776,26.664040 
	C34.534512,27.008732 34.081589,27.008282 33.287834,27.013344 
	C32.910381,26.357309 32.873753,25.695766 33.329559,24.906504 
	C34.219490,24.720562 34.616985,24.662338 35.020729,24.687796 
	C35.026978,24.771479 35.011669,24.938610 35.011673,24.938610 
	C35.006485,25.398705 35.001297,25.858799 34.991776,26.664040 
z"/>
<path fill="#CFA885" opacity="1.000000" stroke="none" 
	d="
M37.468628,24.163237 
	C37.786293,24.214283 37.794937,24.649019 37.729305,24.855930 
	C37.001358,25.035072 36.339046,25.007305 35.344200,24.959074 
	C35.011669,24.938610 35.026978,24.771479 35.042793,24.454464 
	C35.058605,24.137449 35.101501,23.663807 35.331902,23.629930 
	C35.562305,23.596054 36.020836,23.514330 36.020836,23.514330 
	C36.397545,23.713615 36.774258,23.912903 37.468628,24.163237 
z"/>
<path fill="#C8A580" opacity="1.000000" stroke="none" 
	d="
M30.393333,34.786747 
	C30.505615,34.643341 30.860382,34.530754 31.417130,34.634502 
	C31.619106,34.850842 31.126663,34.857689 31.126663,34.857689 
	C31.126663,34.857689 30.635817,34.817566 30.393333,34.786747 
z"/>
<path fill="#2D2D24" opacity="1.000000" stroke="none" 
	d="
M35.952427,23.213573 
	C36.020836,23.514330 35.562305,23.596054 35.264683,23.453934 
	C34.967060,23.311811 34.690266,23.056154 34.686352,23.089249 
	C34.682438,23.122341 34.649288,23.106010 34.649288,23.106010 
	C34.468372,22.986532 34.287457,22.867052 33.896057,22.499096 
	C33.119370,21.057276 32.553165,19.863930 31.919954,18.384720 
	C32.788078,18.538191 33.723209,18.977528 34.827972,19.689009 
	C35.293076,20.945042 35.588547,21.928930 35.952427,23.213573 
z"/>
<path fill="#315F76" opacity="1.000000" stroke="none" 
	d="
M38.320679,23.737782 
	C38.281895,23.728895 38.200222,23.699230 38.237831,23.713837 
	C38.275440,23.728445 38.359459,23.746670 38.320679,23.737782 
z"/>
<path fill="#0C88C8" opacity="1.000000" stroke="none" 
	d="
M40.116329,22.495090 
	C40.099033,22.484671 40.016899,22.330782 39.936310,22.358679 
	C39.855717,22.386576 39.997612,22.641350 40.079666,22.590128 
	C40.161724,22.538906 40.133625,22.505512 40.116329,22.495090 
z"/>
<path fill="#A99176" opacity="1.000000" stroke="none" 
	d="
M24.002220,24.003716 
	C23.722584,23.943020 23.477470,23.815819 23.145561,23.452496 
	C23.465199,23.155819 23.906149,23.028761 24.684797,22.999649 
	C25.013577,23.271784 25.004658,23.445974 24.717331,23.853802 
	C24.438925,24.087442 24.002220,24.003716 24.002220,24.003716 
z"/>
<path fill="#846D57" opacity="1.000000" stroke="none" 
	d="
M24.137203,24.115957 
	C24.002220,24.003716 24.438925,24.087442 24.658430,24.108711 
	C25.095778,24.225609 25.151577,24.360506 24.957550,24.551712 
	C24.654404,24.483624 24.455210,24.370108 24.137203,24.115957 
z"/>
<path fill="#C29F83" opacity="1.000000" stroke="none" 
	d="
M35.034279,23.487808 
	C35.101501,23.663807 35.058605,24.137449 35.036545,24.370781 
	C34.616985,24.662338 34.219490,24.720562 33.527924,24.735331 
	C33.530174,24.381130 33.826496,24.070385 34.321064,23.483555 
	C34.519314,23.207472 34.690266,23.056154 34.690266,23.056154 
	C34.690266,23.056154 34.967060,23.311811 35.034279,23.487808 
z"/>
<path fill="#25281E" opacity="1.000000" stroke="none" 
	d="
M34.686352,23.089249 
	C34.690266,23.056154 34.519314,23.207472 34.589241,23.297575 
	C34.659164,23.387678 34.746044,23.241949 34.697666,23.173981 
	C34.649288,23.106010 34.682438,23.122341 34.686352,23.089249 
z"/>
</svg>